<svg width="116" height="116" viewBox="0 0 116 116" fill="none" xmlns="http://www.w3.org/2000/svg">
<path fill-rule="evenodd" clip-rule="evenodd" d="M110.2 88.9333H5.8C2.5984 88.9333 0 86.3349 0 83.1333V5.8C0 2.5984 2.5984 0 5.8 0H110.2C113.402 0 116 2.5984 116 5.8V83.1333C116 86.3349 113.402 88.9333 110.2 88.9333Z" fill="#0455BF"/>
<path fill-rule="evenodd" clip-rule="evenodd" d="M98.6001 81.2001H11.6001C9.46567 81.2001 7.7334 79.4678 7.7334 77.3334V11.6001C7.7334 9.46567 9.46567 7.7334 11.6001 7.7334H96.6667C98.8011 7.7334 100.533 9.46567 100.533 11.6001V79.2667C100.533 80.3339 99.6673 81.2001 98.6001 81.2001Z" fill="#FDFEFF"/>
<path fill-rule="evenodd" clip-rule="evenodd" d="M11.6001 77.3334V11.6001C11.6001 9.46567 13.3323 7.7334 15.4667 7.7334H11.6001C9.46567 7.7334 7.7334 9.46567 7.7334 11.6001V77.3334C7.7334 79.4678 9.46567 81.2001 11.6001 81.2001H15.4667C13.3323 81.2001 11.6001 79.4678 11.6001 77.3334Z" fill="#DFEAEF"/>
<path fill-rule="evenodd" clip-rule="evenodd" d="M75.4001 44.4667C75.4001 54.074 67.6075 61.8666 58.0001 61.8666C48.3927 61.8666 40.6001 54.074 40.6001 44.4667C40.6001 34.8593 48.3927 27.0667 58.0001 27.0667C67.6075 27.0667 75.4001 34.8593 75.4001 44.4667Z" fill="#0455BF"/>
<path fill-rule="evenodd" clip-rule="evenodd" d="M65.7332 52.2001C65.7332 50.821 66.4782 49.5527 67.6666 48.867C65.0991 47.3461 61.8459 49.2099 61.8666 52.2001V58.0001C63.1658 58.0001 64.465 57.848 65.7332 57.5567V52.2001Z" fill="#004787"/>
<path fill-rule="evenodd" clip-rule="evenodd" d="M61.8666 58C55.3216 58.0103 49.3308 54.3447 46.3586 48.5138C43.389 42.6854 43.9433 35.6867 47.7893 30.3894C43.6623 33.3796 41.0536 38.0222 40.6514 43.0978C40.2467 48.1735 42.0898 53.1666 45.6962 56.7704C49.2896 60.3664 54.2853 62.2095 59.3584 61.8074C64.434 61.4026 69.0869 58.7965 72.0668 54.6669C69.1075 56.8322 65.5322 58 61.8666 58Z" fill="#004787"/>
<path fill-rule="evenodd" clip-rule="evenodd" d="M54.1333 52.2C53.0661 52.2 52.2 51.3339 52.2 50.2667V38.6667C52.2 37.2257 53.7105 36.2899 54.9994 36.9344L66.5994 42.7344C67.7775 43.3299 68.0301 44.8997 67.1021 45.8251C66.8005 46.1293 66.8005 46.1293 54.9994 51.9886C54.7262 52.1304 54.4349 52.2 54.1333 52.2Z" fill="#FEBC00"/>
<path fill-rule="evenodd" clip-rule="evenodd" d="M66.5992 42.7346L66.2203 42.5439L58.8659 46.1992C57.577 46.8436 56.0664 45.9079 56.0664 44.4669V37.4682L54.9992 36.9346C53.7103 36.2902 52.1998 37.2259 52.1998 38.6669V50.2669C52.1894 51.7079 53.7 52.6436 54.9889 52.0095C66.7797 46.1476 66.7797 46.1476 67.0916 45.846C68.0196 44.9103 67.767 43.3378 66.5889 42.7553L66.5992 42.7346Z" fill="#EDAA03"/>
<path fill-rule="evenodd" clip-rule="evenodd" d="M36.7333 65.7334H19.3333V69.6001H73.4666V65.7334H36.7333Z" fill="#0455BF"/>
<path fill-rule="evenodd" clip-rule="evenodd" d="M108.267 40.6001C110.401 40.6001 112.133 42.7345 112.133 44.4668C112.133 46.6012 110.401 48.3334 108.267 48.3334C106.132 48.3334 104.4 46.199 104.4 44.4668C104.4 42.3324 106.132 40.6001 108.267 40.6001Z" fill="#FEBC00"/>
<path fill-rule="evenodd" clip-rule="evenodd" d="M110.2 46.4C107.39 46.4103 105.519 43.5 106.686 40.9531C104.209 42.0487 103.603 45.3018 105.519 47.2145C107.442 49.1376 110.685 48.5344 111.79 46.0571C111.288 46.2788 110.744 46.4 110.2 46.4Z" fill="#EDAA03"/>
<path fill-rule="evenodd" clip-rule="evenodd" d="M92.8 77.3333C90.6656 77.3333 88.9334 79.0655 88.9334 81.1999V75.3999C88.9334 70.2444 81.2 70.2444 81.2 75.3999V67.6666C81.2 62.511 73.4667 62.511 73.4667 67.6666V52.1999C73.4667 47.0444 65.7334 47.0444 65.7334 52.1999V91.1991C65.7334 93.3438 63.1453 94.411 61.6347 92.9005L54.1334 85.3991C52.6331 83.8473 50.1455 83.8293 48.6246 85.3579C47.096 86.8788 47.1141 89.3663 48.6659 90.8666L56.8632 99.0742L60.3149 102.518C63.8902 106.091 65.9035 110.945 65.9035 116H91.6632V115.276C91.6632 112.497 92.5371 109.787 94.1585 107.522C95.7902 105.266 96.6667 102.557 96.6667 99.778V81.1999C96.6667 79.0655 94.9344 77.3333 92.8 77.3333Z" fill="#ECC19C"/>
<path fill-rule="evenodd" clip-rule="evenodd" d="M30.9333 71.5333C27.4894 71.5333 25.7674 67.3651 28.1957 64.9291C30.6317 62.5008 34.7999 64.2228 34.7999 67.6667C34.7999 69.8011 33.0677 71.5333 30.9333 71.5333Z" fill="#FEBC00"/>
<path fill-rule="evenodd" clip-rule="evenodd" d="M32.8667 69.5999C30.0569 69.6102 28.1855 66.6999 29.3532 64.1531C26.876 65.2486 26.2702 68.5018 28.1855 70.4145C30.1085 72.3375 33.3513 71.7343 34.4572 69.2571C33.9545 69.4788 33.4106 69.5999 32.8667 69.5999Z" fill="#EDAA03"/>
<path fill-rule="evenodd" clip-rule="evenodd" d="M48.6656 85.3989C48.9079 85.1669 49.1786 84.9658 49.4622 84.7957C46.5699 83.1021 43.0461 85.6618 43.7524 88.933H47.6191C47.3458 87.6545 47.7402 86.3243 48.6656 85.3989ZM61.8664 88.933H65.7331V81.1997H61.8664V88.933Z" fill="#004787"/>
<mask id="mask0_1_45" style="mask-type:luminance" maskUnits="userSpaceOnUse" x="0" y="0" width="116" height="116">
<path fill-rule="evenodd" clip-rule="evenodd" d="M0 116H116V0H0V116Z" fill="white"/>
</mask>
<g mask="url(#mask0_1_45)">
<path fill-rule="evenodd" clip-rule="evenodd" d="M61.8668 81.2001H65.7334V69.6001H61.8668V81.2001ZM65.7334 60.0339C65.2797 60.2556 64.8183 60.467 64.3543 60.6474C64.1919 60.7093 64.0321 60.7686 63.8594 60.8305C63.4263 60.9903 62.9855 61.1218 62.5318 61.2429C62.3411 61.2919 62.1297 61.3538 61.926 61.4027L61.8564 61.4234V65.7334H65.7231L65.7334 60.0339Z" fill="#DFEAEF"/>
<path fill-rule="evenodd" clip-rule="evenodd" d="M65.7334 57.5569C64.4651 57.8482 63.1659 58.0003 61.8667 58.0003V61.4132L61.9363 61.4029C62.7638 61.2019 63.568 60.9492 64.3543 60.6476C64.826 60.4569 65.29 60.2661 65.7334 60.0238V57.5569ZM61.8667 69.6003H65.7334V65.7336H61.8667V69.6003Z" fill="#004787"/>
</g>
</svg>
