<svg width="53" height="50" viewBox="0 0 53 50" fill="none" xmlns="http://www.w3.org/2000/svg">
<path fill-rule="evenodd" clip-rule="evenodd" d="M0.500488 19.2497V35.4137L14.4995 43.4967L28.5005 35.4137V19.2497L14.4995 11.1677L0.500488 19.2497Z" fill="#B386BC"/>
<path fill-rule="evenodd" clip-rule="evenodd" d="M14.5 43.4962L28.5 35.4142L28.48 19.2502L14.48 27.3322L14.5 43.4962Z" fill="#CBAAD0"/>
<path fill-rule="evenodd" clip-rule="evenodd" d="M0.542725 19.2272L14.4997 27.2812L28.4567 19.2272L14.4997 11.1672L0.542725 19.2272Z" fill="#EADDED"/>
<path fill-rule="evenodd" clip-rule="evenodd" d="M35.5 39.793C35.5 45.039 31.246 49.293 26 49.293C20.754 49.293 16.5 45.039 16.5 39.793C16.5 34.547 20.754 30.293 26 30.293C31.246 30.293 35.5 34.547 35.5 39.793Z" fill="#EADDED"/>
<path fill-rule="evenodd" clip-rule="evenodd" d="M37.5 1.37122L28.5 24.3512V30.6442C32.531 31.7422 35.5 35.4142 35.5 39.7932C35.5 41.1012 35.23 42.3912 34.707 43.5902L37.5 45.2032L51.5 37.1172L37.5 1.37122Z" fill="#CBAAD0"/>
<path fill-rule="evenodd" clip-rule="evenodd" d="M37.5 1.37122L28.5 24.3512V30.6442C32.531 31.7422 35.5 35.4142 35.5 39.7932C35.5 41.1012 35.23 42.3912 34.707 43.5902L37.5 45.2032V1.37122Z" fill="#B386BC"/>
<mask id="mask0_1_897" style="mask-type:luminance" maskUnits="userSpaceOnUse" x="0" y="0" width="53" height="50">
<path fill-rule="evenodd" clip-rule="evenodd" d="M0 0H52.1207V49.793H0V0Z" fill="white"/>
</mask>
<g mask="url(#mask0_1_897)">
<path fill-rule="evenodd" clip-rule="evenodd" d="M35.4298 43.086C35.4848 42.934 35.5388 42.777 35.5858 42.621C35.6328 42.461 35.6718 42.301 35.7108 42.137C35.7458 41.992 35.7818 41.852 35.8128 41.707C35.8518 41.512 35.8748 41.309 35.9028 41.109C35.9178 40.992 35.9378 40.883 35.9498 40.766C35.9808 40.441 35.9998 40.117 35.9998 39.793C35.9998 39.481 35.9808 39.176 35.9528 38.871C35.9418 38.758 35.9258 38.649 35.9098 38.539C35.8708 38.215 35.8168 37.895 35.7418 37.574C35.7068 37.43 35.6718 37.285 35.6288 37.137C35.5898 36.988 35.5468 36.836 35.4998 36.688C35.4688 36.59 35.4298 36.496 35.3948 36.402C35.2578 36.024 35.0978 35.656 34.9178 35.297C34.9028 35.262 34.8868 35.231 34.8708 35.195C34.7698 35.008 34.6678 34.824 34.5548 34.645L34.4498 34.469C34.3358 34.289 34.2188 34.117 34.0938 33.945L33.9848 33.801C32.7348 32.129 30.9928 30.891 28.9998 30.258V24.449L36.9998 4.02V44.34L35.3358 43.379C35.3708 43.281 35.3988 43.184 35.4298 43.086ZM25.9998 48.793C21.7228 48.793 18.1378 45.789 17.2298 41.781C17.0778 41.129 17.0038 40.461 16.9998 39.793C16.9998 34.828 21.0348 30.793 25.9998 30.793C26.3708 30.793 26.7458 30.82 27.1248 30.871L27.2578 30.891C27.5858 30.938 27.9178 31.008 28.2498 31.094L28.3678 31.129C30.0198 31.578 31.5078 32.492 32.6598 33.762L32.7028 33.813C32.8518 33.977 32.9918 34.145 33.1288 34.32L33.1798 34.391C33.7108 35.094 34.1328 35.871 34.4418 36.703C34.4728 36.785 34.5038 36.867 34.5318 36.949C34.5818 37.098 34.6208 37.242 34.6638 37.391C34.7348 37.645 34.7928 37.899 34.8438 38.152C34.8708 38.316 34.8988 38.481 34.9178 38.645C34.9338 38.746 34.9498 38.852 34.9568 38.957C34.9848 39.231 34.9998 39.512 34.9998 39.793C34.9998 40.102 34.9848 40.41 34.9528 40.715C34.9498 40.746 34.9418 40.777 34.9378 40.809C34.9098 41.082 34.8678 41.356 34.8128 41.625C34.8088 41.649 34.7968 41.676 34.7928 41.703C34.7348 41.977 34.6638 42.246 34.5778 42.512C34.5708 42.543 34.5548 42.574 34.5428 42.609C34.4608 42.863 34.3638 43.113 34.2578 43.359C32.8748 46.555 29.6958 48.793 25.9998 48.793ZM14.9998 42.336V27.66L27.9998 20.152V29.996C27.3438 29.859 26.6718 29.793 25.9998 29.793C20.4838 29.793 15.9998 34.277 15.9998 39.793C15.9998 40.102 16.0158 40.418 16.0468 40.734C16.0778 41.047 16.1208 41.352 16.1798 41.656L14.9998 42.336ZM0.999756 20.152L13.9998 27.66V42.336L0.999756 34.832V20.152ZM27.3558 19.371L14.4998 26.793L1.64476 19.371L14.4998 11.949L27.3558 19.371ZM37.9998 44.336V4.02L50.8788 36.902L37.9998 44.336ZM52.1208 37.34L37.4998 0L28.9998 21.703V19.164L14.4998 10.793L-0.000244141 19.164V35.41L14.4998 43.777L16.4268 42.668C17.6638 46.785 21.4838 49.793 25.9998 49.793C29.8948 49.793 33.2698 47.551 34.9178 44.289L37.4998 45.777L52.1208 37.34Z" fill="#8E5AA4"/>
</g>
</svg>
