<svg width="22" height="22" viewBox="0 0 22 22" fill="none" xmlns="http://www.w3.org/2000/svg">
<path fill-rule="evenodd" clip-rule="evenodd" d="M21.2504 12.1886C21.2504 5.46839 15.782 0 9.06057 0V1.23944C15.0982 1.23944 20.011 6.15132 20.011 12.1886H21.2504ZM1.53688 7.10259L3.33438 5.3051C3.3477 5.29177 3.37187 5.28465 3.40317 5.28465C3.4735 5.28465 3.58009 5.31966 3.67429 5.41417L6.3239 8.06347C6.46055 8.20042 6.47263 8.36372 6.43297 8.40369L5.60719 9.22915C4.5797 10.257 5.76336 12.5143 7.46294 14.2135C8.30886 15.0598 9.23843 15.735 10.0822 16.1164C11.4707 16.7432 12.1592 16.3547 12.4461 16.0681L13.2728 15.2423C13.3115 15.2026 13.4748 15.2147 13.6118 15.3514L16.2611 18.0022C16.398 18.1388 16.4101 18.3012 16.3714 18.3409L14.5727 20.1384C14.0741 20.6385 12.865 20.539 11.3387 19.8722C9.57122 19.1013 7.60919 17.6886 5.81542 15.8961C4.13536 14.216 2.68801 12.1778 1.84179 10.3053C1.15793 8.79225 1.04421 7.59527 1.53688 7.10259ZM0.712658 10.8147C1.61683 12.8192 3.15745 14.9907 4.93914 16.7724C6.8395 18.6727 8.93725 20.1771 10.8435 21.0088C11.8809 21.4615 12.8105 21.6877 13.591 21.6877C14.3694 21.6877 15.0012 21.4639 15.4489 21.0146L17.2477 19.2175C17.7936 18.6703 17.745 17.7323 17.1377 17.1259L14.4881 14.4751C13.8804 13.8687 12.9425 13.8203 12.3965 14.366L11.5711 15.1915C11.3421 15.3622 9.92849 14.9265 8.33922 13.3373C6.74748 11.7468 6.31181 10.3319 6.48379 10.1054L7.31049 9.27997C7.85615 8.73307 7.80657 7.79358 7.20018 7.18718L4.54933 4.53789C3.94294 3.93149 3.00376 3.88161 2.45779 4.42882L0.660602 6.22631C-0.23768 7.12304 -0.219398 8.75352 0.712658 10.8147Z" fill="#0961F5"/>
<path fill-rule="evenodd" clip-rule="evenodd" d="M9.29053 3.38562V4.62506C13.5889 4.62506 17.0857 8.12182 17.0857 12.4186H18.3251C18.3251 7.43796 14.2728 3.38562 9.29053 3.38562Z" fill="#0961F5"/>
<path fill-rule="evenodd" clip-rule="evenodd" d="M13.93 12.4186H15.1695C15.1695 9.17841 12.532 6.54089 9.29053 6.54089V7.78033C11.8493 7.78033 13.93 9.86103 13.93 12.4186Z" fill="#0961F5"/>
</svg>
