<svg width="24" height="13" viewBox="0 0 24 13" fill="none" xmlns="http://www.w3.org/2000/svg">
<mask id="mask0_1_1797" style="mask-type:luminance" maskUnits="userSpaceOnUse" x="0" y="0" width="24" height="13">
<path fill-rule="evenodd" clip-rule="evenodd" d="M0 0H23.9999V12.9996H0V0Z" fill="white"/>
</mask>
<g mask="url(#mask0_1_1797)">
<path fill-rule="evenodd" clip-rule="evenodd" d="M9.49991 13C9.22291 13 8.99991 12.772 8.99991 12.5V1.5C8.99991 1.223 9.22291 1 9.49991 1C9.77691 1 9.99991 1.223 9.99991 1.5V12.5C9.99991 12.772 9.77691 13 9.49991 13ZM6.49991 13C6.22291 13 5.99991 12.772 5.99991 12.5V5.5C5.99991 5.223 6.22291 5 6.49991 5C6.77691 5 6.99991 5.223 6.99991 5.5V12.5C6.99991 12.772 6.77691 13 6.49991 13ZM3.49991 13C3.22291 13 2.99991 12.772 2.99991 12.5V4.5C2.99991 4.223 3.22291 4 3.49991 4C3.77691 4 3.99991 4.223 3.99991 4.5V12.5C3.99991 12.772 3.77691 13 3.49991 13ZM0.499908 12C0.222908 12 -9.15527e-05 11.772 -9.15527e-05 11.5V7.5C-9.15527e-05 7.223 0.222908 7 0.499908 7C0.776908 7 0.999908 7.223 0.999908 7.5V11.5C0.999908 11.772 0.776908 12 0.499908 12ZM12.9999 12H20.4999C21.8789 12 22.9999 10.875 22.9999 9.5C22.9999 8.121 21.8789 7 20.4999 7C19.8589 7 19.2419 7.246 18.7809 7.69C18.6249 7.84 18.3949 7.871 18.2069 7.772C18.0199 7.68 17.9099 7.473 17.9409 7.262C17.9779 7.012 17.9999 6.758 17.9999 6.5C17.9999 3.637 15.8019 1.272 12.9999 1.019V12ZM20.4999 13H12.4999C12.2229 13 11.9999 12.772 11.9999 12.5V0.5C11.9999 0.223 12.2229 0 12.4999 0C16.0269 0.003 18.9059 2.815 18.9959 6.34C19.4649 6.113 19.9799 5.996 20.4999 6C22.4309 6 23.9999 7.565 23.9999 9.5C23.9999 11.43 22.4309 13 20.4999 13Z" fill="#1D1D1B"/>
</g>
</svg>
