<svg width="22" height="14" viewBox="0 0 22 14" fill="none" xmlns="http://www.w3.org/2000/svg">
<path fill-rule="evenodd" clip-rule="evenodd" d="M1.28631 7.04606C1.96373 8.22161 5.08121 12.8276 10.8162 12.8276C16.5513 12.8276 19.6692 8.22161 20.3466 7.04606C19.6692 5.87097 16.5513 1.26497 10.8162 1.26497C5.08121 1.26497 1.96373 5.87097 1.28631 7.04606ZM10.8162 14C3.50056 14 0.203339 7.54419 0.0674032 7.27187C-0.0224677 7.09258 -0.0224677 6.91013 0.0674032 6.73084C0.203339 6.45852 3.50056 0 10.8162 0C18.1319 0 21.4291 6.45852 21.5655 6.73084C21.655 6.91013 21.655 7.09258 21.5655 7.27187C21.4291 7.58755 18.1319 14 10.8162 14Z" fill="#202244"/>
<path fill-rule="evenodd" clip-rule="evenodd" d="M10.8163 2.53032C8.33248 2.53032 6.30022 4.56258 6.30022 7.04645C6.30022 9.53032 8.33248 11.5626 10.8163 11.5626C13.3002 11.5626 15.3325 9.53032 15.3325 7.04645C15.3325 4.56258 13.3002 2.53032 10.8163 2.53032ZM10.8163 12.7377C7.65506 12.7377 5.12512 10.1617 5.12512 7.04645C5.12512 3.93122 7.70112 1.35522 10.8163 1.35522C13.9316 1.35522 16.508 3.93122 16.508 7.04645C16.508 10.1617 13.9776 12.7377 10.8163 12.7377Z" fill="#202244"/>
<path fill-rule="evenodd" clip-rule="evenodd" d="M10.8163 10.2075C9.09974 10.2075 7.65503 8.80656 7.65503 7.04617C7.65503 6.73094 7.9269 6.45862 8.24258 6.45862C8.55826 6.45862 8.83013 6.73094 8.83013 7.04617C8.83013 8.12914 9.68729 8.98901 10.7703 8.98901C11.8559 8.98901 12.7126 8.12914 12.7126 7.04617C12.7126 5.96365 11.8559 5.10378 10.7703 5.10378C10.4546 5.10378 10.185 4.83462 10.185 4.51624C10.185 4.20056 10.4546 3.9314 10.7703 3.9314C12.4868 3.9314 13.9315 5.32959 13.9315 7.09269C13.9315 8.85262 12.5334 10.2075 10.8163 10.2075Z" fill="#202244"/>
</svg>
