<svg width="54" height="54" viewBox="0 0 54 54" fill="none" xmlns="http://www.w3.org/2000/svg">
<path fill-rule="evenodd" clip-rule="evenodd" d="M13.7499 28.2866V40.5333C14.8453 40.9201 15.5796 41.9541 15.5833 43.1183V44.9516C15.5833 45.4567 15.1717 45.8683 14.6666 45.8683H5.49992C4.99484 45.8683 4.58325 45.4567 4.58325 44.9516V43.1183C4.58692 41.9541 5.32117 40.9201 6.41659 40.5333V28.2866C5.32117 27.8998 4.58692 26.8658 4.58325 25.7016V23.8683C4.58325 23.3632 4.99484 22.9516 5.49992 22.9516H14.6666C15.1717 22.9516 15.5833 23.3632 15.5833 23.8683V25.7016C15.5796 26.8658 14.8453 27.8998 13.7499 28.2866Z" fill="#96A1C3"/>
<path fill-rule="evenodd" clip-rule="evenodd" d="M13.7501 28.2866V40.5333C14.8455 40.9201 15.5797 41.9541 15.5834 43.1183V44.9516C15.5834 45.4567 15.1718 45.8683 14.6667 45.8683H8.25006C8.2464 45.8435 8.2464 45.8179 8.25006 45.7968V43.8168C8.25373 42.6132 8.97331 41.5288 10.0834 41.0668V27.7998C8.95865 27.3305 8.23173 26.2241 8.25006 25.0031V23.0231C8.2464 23.002 8.2464 22.9763 8.25006 22.9516H14.6667C15.1718 22.9516 15.5834 23.3632 15.5834 23.8683V25.7016C15.5797 26.8658 14.8455 27.8998 13.7501 28.2866Z" fill="#CCD3EB"/>
<path fill-rule="evenodd" clip-rule="evenodd" d="M30.2499 28.2866V40.5333C31.3453 40.9201 32.0796 41.9541 32.0833 43.1183V44.9516C32.0833 45.4567 31.6717 45.8683 31.1666 45.8683H21.9999C21.4948 45.8683 21.0833 45.4567 21.0833 44.9516V43.1183C21.0869 41.9541 21.8212 40.9201 22.9166 40.5333V28.2866C21.8212 27.8998 21.0869 26.8658 21.0833 25.7016V23.8683C21.0833 23.3632 21.4948 22.9516 21.9999 22.9516H31.1666C31.6717 22.9516 32.0833 23.3632 32.0833 23.8683V25.7016C32.0796 26.8658 31.3453 27.8998 30.2499 28.2866Z" fill="#96A1C3"/>
<path fill-rule="evenodd" clip-rule="evenodd" d="M30.2501 28.2866V40.5333C31.3455 40.9201 32.0797 41.9541 32.0834 43.1183V44.9516C32.0834 45.4567 31.6718 45.8683 31.1667 45.8683H24.7501C24.7464 45.8435 24.7464 45.8179 24.7501 45.7968V43.8168C24.7537 42.6132 25.4733 41.5288 26.5834 41.0668V27.7998C25.4586 27.3305 24.7317 26.2241 24.7501 25.0031V23.0231C24.7464 23.002 24.7464 22.9763 24.7501 22.9516H31.1667C31.6718 22.9516 32.0834 23.3632 32.0834 23.8683V25.7016C32.0797 26.8658 31.3455 27.8998 30.2501 28.2866Z" fill="#CCD3EB"/>
<path fill-rule="evenodd" clip-rule="evenodd" d="M46.7499 28.2866V40.5333C47.8453 40.9201 48.5796 41.9541 48.5833 43.1183V44.9516C48.5833 45.4567 48.1717 45.8683 47.6666 45.8683H38.4999C37.9948 45.8683 37.5833 45.4567 37.5833 44.9516V43.1183C37.5869 41.9541 38.3212 40.9201 39.4166 40.5333V28.2866C38.3212 27.8998 37.5869 26.8658 37.5833 25.7016V23.8683C37.5833 23.3632 37.9948 22.9516 38.4999 22.9516H47.6666C48.1717 22.9516 48.5833 23.3632 48.5833 23.8683V25.7016C48.5796 26.8658 47.8453 27.8998 46.7499 28.2866Z" fill="#96A1C3"/>
<path fill-rule="evenodd" clip-rule="evenodd" d="M49.5 17.4512C49.5 17.9563 49.0884 18.3679 48.5833 18.3679H4.58331C4.19648 18.3679 3.85273 18.1241 3.72073 17.7629C3.59148 17.3971 3.70606 16.9892 4.00673 16.7454L4.25423 16.5346L13.0084 9.37631L22.7516 1.39856C23.1531 1.06948 23.5968 0.797229 24.0735 0.586395C24.3815 0.436062 24.7069 0.317812 25.0433 0.235312C26.0535 -0.0332713 27.1131 -0.0332713 28.1233 0.235312C28.3525 0.288479 28.578 0.363645 28.7925 0.457145L29.0931 0.586395C29.4626 0.750479 29.8127 0.954895 30.1391 1.1914L30.415 1.39856L38.665 8.15531L41.4901 10.4653L42.1666 11.0346L44.9991 13.3546L47.7491 15.5996L48.8766 16.5162L49.1241 16.728C49.357 16.8966 49.4963 17.1652 49.5 17.4512ZM46.75 28.2862V40.5338C47.8454 40.9206 48.5796 41.9537 48.5833 43.1179V44.9512C48.5833 45.4572 48.1717 45.8679 47.6666 45.8679H41.25C41.2463 45.8441 41.2463 45.8175 41.25 45.7964V43.8173C41.2536 42.6128 41.9732 41.5293 43.0833 41.0673V27.7995C41.9586 27.3301 41.2316 26.2237 41.25 25.0027V23.0227C41.2463 23.0016 41.2463 22.976 41.25 22.9512H47.6666C48.1717 22.9512 48.5833 23.3628 48.5833 23.8679V25.7012C48.5796 26.8663 47.8454 27.8994 46.75 28.2862Z" fill="#CCD3EB"/>
<path fill-rule="evenodd" clip-rule="evenodd" d="M47.7849 15.6179H12.8333C12.4465 15.6179 12.1027 15.3741 11.9707 15.0129C11.8415 14.6472 11.9561 14.2392 12.2567 13.9954L12.5042 13.7846L21.2584 6.62632L28.7925 0.457153L29.0931 0.586403C29.4626 0.750487 29.8136 0.954903 30.1391 1.1914L30.415 1.39857L38.665 8.15532L41.4901 10.4653L42.1666 11.0346L44.9991 13.3547L47.7849 15.6179Z" fill="#F5F7FF"/>
<path fill-rule="evenodd" clip-rule="evenodd" d="M3.66675 16.535H49.5001C51.0181 16.535 52.2501 17.767 52.2501 19.285V22.035C52.2501 23.553 51.0181 24.785 49.5001 24.785H3.66675C2.14875 24.785 0.916748 23.553 0.916748 22.035V19.285C0.916748 17.767 2.14875 16.535 3.66675 16.535Z" fill="#CCD3EB"/>
<path fill-rule="evenodd" clip-rule="evenodd" d="M26.9306 8.28499H26.0139C25.7628 8.28499 25.5556 8.08058 25.5556 7.82666C25.5556 7.57274 25.7628 7.36833 26.0139 7.36833H28.4165C28.9216 7.36833 29.3332 6.95674 29.3332 6.45166C29.3332 5.94658 28.9216 5.53499 28.4165 5.53499H27.4999V4.61833C27.4999 4.11324 27.0883 3.70166 26.5832 3.70166C26.0781 3.70166 25.6665 4.11324 25.6665 4.61833V5.53499C24.4024 5.63124 23.4537 6.73491 23.5499 8.00174C23.6471 9.26583 24.7499 10.2146 26.0139 10.1183H26.9306C27.1845 10.1183 27.3889 10.3227 27.3889 10.5767C27.3889 10.8306 27.1845 11.035 26.9306 11.035H24.7499C24.2448 11.035 23.8332 11.4466 23.8332 11.9517C23.8332 12.4567 24.2448 12.8683 24.7499 12.8683H25.6665V13.785C25.6665 14.2901 26.0781 14.7017 26.5832 14.7017C27.0883 14.7017 27.4999 14.2901 27.4999 13.785V12.7858C28.6283 12.5136 29.3726 11.4365 29.2296 10.2833C29.0829 9.13016 28.0948 8.26666 26.9306 8.28499Z" fill="#F5F7FF"/>
<path fill-rule="evenodd" clip-rule="evenodd" d="M48.5833 44.0347H4.58333C2.0515 44.0347 0 46.0862 0 48.618V52.2847C0 52.7907 0.411583 53.2013 0.916667 53.2013H52.25C52.7551 53.2013 53.1667 52.7907 53.1667 52.2847V48.618C53.1667 46.0862 51.1152 44.0347 48.5833 44.0347Z" fill="#96A1C3"/>
<path fill-rule="evenodd" clip-rule="evenodd" d="M42.3315 12.3384C42.1601 12.5493 41.9016 12.6749 41.6257 12.6749C41.4148 12.6785 41.2067 12.6034 41.05 12.464L40.3332 11.8801C40.0004 11.5437 39.9757 11.0139 40.2727 10.6518C40.5697 10.2869 41.0958 10.2081 41.49 10.4657L42.1665 11.0349C42.3636 11.1853 42.4928 11.4071 42.5249 11.6509C42.5533 11.8948 42.4855 12.145 42.3315 12.3384Z" fill="#033C59"/>
<path fill-rule="evenodd" clip-rule="evenodd" d="M26.0139 7.3679H28.4165C28.9216 7.3679 29.3332 6.95632 29.3332 6.45123C29.3332 5.94615 28.9216 5.53457 28.4165 5.53457H27.4999V4.6179C27.4999 4.11282 27.0883 3.70123 26.5832 3.70123C26.0781 3.70123 25.6665 4.11282 25.6665 4.6179V5.53457C24.4024 5.63082 23.4537 6.73448 23.5499 8.00132C23.6471 9.2654 24.7499 10.2141 26.0139 10.1179H26.9306C27.1845 10.1179 27.3889 10.3223 27.3889 10.5762C27.3889 10.8301 27.1845 11.0346 26.9306 11.0346H24.7499C24.2448 11.0346 23.8332 11.4461 23.8332 11.9512C23.8332 12.4563 24.2448 12.8679 24.7499 12.8679H25.6665V13.7846C25.6665 14.2896 26.0781 14.7012 26.5832 14.7012C27.0883 14.7012 27.4999 14.2896 27.4999 13.7846V12.7863C28.6283 12.5131 29.3726 11.4361 29.2296 10.2829C29.0829 9.12973 28.0948 8.26623 26.9306 8.28457H26.0139C25.7628 8.28457 25.5556 8.08015 25.5556 7.82623C25.5556 7.57232 25.7628 7.3679 26.0139 7.3679Z" fill="#0074FF"/>
<mask id="mask0_1_1004" style="mask-type:luminance" maskUnits="userSpaceOnUse" x="0" y="0" width="54" height="54">
<path fill-rule="evenodd" clip-rule="evenodd" d="M0 0H53.1667V53.2013H0V0Z" fill="white"/>
</mask>
<g mask="url(#mask0_1_1004)">
<path fill-rule="evenodd" clip-rule="evenodd" d="M51.3333 51.368H1.83333V48.618C1.83333 47.1009 3.06533 45.868 4.58333 45.868H48.5833C50.1013 45.868 51.3333 47.1009 51.3333 48.618V51.368ZM6.41667 43.118C6.41667 42.6129 6.82825 42.2013 7.33333 42.2013H12.8333C13.3384 42.2013 13.75 42.6129 13.75 43.118V44.0347H6.41667V43.118ZM3.66667 22.9513C3.16158 22.9513 2.75 22.5398 2.75 22.0347V19.2847C2.75 18.7796 3.16158 18.368 3.66667 18.368H49.5C50.0051 18.368 50.4167 18.7796 50.4167 19.2847V22.0347C50.4167 22.5398 50.0051 22.9513 49.5 22.9513H3.66667ZM41.25 40.368H44.9167V28.4513H41.25V40.368ZM39.4167 43.118C39.4167 42.6129 39.8283 42.2013 40.3333 42.2013H45.8333C46.3384 42.2013 46.75 42.6129 46.75 43.118V44.0347H39.4167V43.118ZM29.3333 26.618H23.8333C23.3282 26.618 22.9167 26.2073 22.9167 25.7013V24.7847H30.25V25.7013C30.25 26.2073 29.8384 26.618 29.3333 26.618ZM24.75 40.368H28.4167V28.4513H24.75V40.368ZM22.9167 43.118C22.9167 42.6129 23.3282 42.2013 23.8333 42.2013H29.3333C29.8384 42.2013 30.25 42.6129 30.25 43.118V44.0347H22.9167V43.118ZM8.25 40.368H11.9167V28.4513H8.25V40.368ZM7.33333 26.618C6.82825 26.618 6.41667 26.2073 6.41667 25.7013V24.7847H13.75V25.7013C13.75 26.2073 13.3384 26.618 12.8333 26.618H7.33333ZM13.75 40.5339V28.2863C14.8454 27.8995 15.5797 26.8655 15.5833 25.7013V24.7847H21.0833V25.7013C21.087 26.8655 21.8213 27.8995 22.9167 28.2863V40.5339C21.8213 40.9208 21.087 41.9538 21.0833 43.118V44.0347H15.5833V43.118C15.5797 41.9538 14.8454 40.9208 13.75 40.5339ZM30.25 40.5339V28.2863C31.3454 27.8995 32.0797 26.8655 32.0833 25.7013V24.7847H37.5833V25.7013C37.587 26.8655 38.3213 27.8995 39.4167 28.2863V40.5339C38.3213 40.9208 37.587 41.9538 37.5833 43.118V44.0347H32.0833V43.118C32.0797 41.9538 31.3454 40.9208 30.25 40.5339ZM46.75 25.7013C46.75 26.2073 46.3384 26.618 45.8333 26.618H40.3333C39.8283 26.618 39.4167 26.2073 39.4167 25.7013V24.7847H46.75V25.7013ZM48.5833 44.0347V43.118C48.5797 41.9538 47.8454 40.9208 46.75 40.5339V28.2863C47.8454 27.8995 48.5797 26.8655 48.5833 25.7013V24.7847H49.5C51.018 24.7847 52.25 23.5527 52.25 22.0347V19.2847C52.25 17.7667 51.018 16.5347 49.5 16.5347H48.9124L45.0349 13.3731C44.7874 13.1256 44.4226 13.0403 44.0935 13.1513C43.7598 13.2658 43.5233 13.5555 43.4775 13.9029C43.4344 14.2503 43.5884 14.5904 43.8817 14.7838L46.0158 16.5347H7.15092L23.9048 2.78467C25.2652 1.72501 27.1242 1.56367 28.6458 2.37309C28.8603 2.49134 29.0684 2.63067 29.2618 2.78467L37.5118 9.53042C37.9023 9.79259 38.4285 9.71009 38.7255 9.34892C39.0225 8.98317 38.9977 8.45334 38.665 8.11967L30.415 1.37392C30.3252 1.29876 30.2289 1.22726 30.1318 1.16217C29.81 0.919257 29.4626 0.711174 29.0932 0.547091C26.9949 -0.412659 24.5355 -0.0945759 22.7517 1.37392L13.0084 9.37642L4.25425 16.5347H3.66667C2.14867 16.5347 0.916667 17.7667 0.916667 19.2847V22.0347C0.916667 23.5527 2.14867 24.7847 3.66667 24.7847H4.58333V25.7013C4.587 26.8655 5.32125 27.8995 6.41667 28.2863V40.5339C5.32125 40.9208 4.587 41.9538 4.58333 43.118V44.0347C2.0515 44.0347 0 46.0862 0 48.618V52.2847C0 52.7907 0.411583 53.2013 0.916667 53.2013H52.25C52.7551 53.2013 53.1667 52.7907 53.1667 52.2847V48.618C53.1667 46.0862 51.1152 44.0347 48.5833 44.0347Z" fill="#033C59"/>
</g>
</svg>
