<svg width="23" height="23" viewBox="0 0 23 23" fill="none" xmlns="http://www.w3.org/2000/svg">
<path fill-rule="evenodd" clip-rule="evenodd" d="M9.21889 22.7712C8.81998 22.6929 8.56483 22.3054 8.64317 21.9094C8.72151 21.5105 9.10892 21.2554 9.50423 21.3337C14.6512 22.3385 19.7076 19.2227 21.1257 14.1742C22.5409 9.12285 19.8399 3.83357 14.9179 2.01729C9.99945 0.203164 4.51036 2.46938 2.30667 7.22823C0.0993886 11.9871 1.92142 17.6415 6.48692 20.2189C6.83192 20.4187 6.95051 20.8593 6.75358 21.2043C6.55448 21.55 6.11317 21.6679 5.76817 21.471C0.573764 18.481 -1.4567 12.0043 1.10492 6.58495C3.66798 1.16916 9.95992 -1.37449 15.5669 0.745102C21.1731 2.86182 24.2142 8.9331 22.5517 14.691C20.8899 20.4496 15.0839 23.9643 9.21026 22.7712H9.21889Z" fill="#202244"/>
<path fill-rule="evenodd" clip-rule="evenodd" d="M11.5179 4.31396C7.54829 4.31396 4.33044 7.53181 4.33044 11.5015C4.33044 15.4711 7.54829 18.689 11.5179 18.689C15.4876 18.689 18.7054 15.4711 18.7054 11.5015C18.7054 7.53181 15.4876 4.31396 11.5179 4.31396ZM11.5179 20.1265C6.75335 20.1265 2.89294 16.2661 2.89294 11.5015C2.89294 6.73687 6.75335 2.87646 11.5179 2.87646C16.2825 2.87646 20.1429 6.73687 20.1429 11.5015C20.1429 16.2661 16.2825 20.1265 11.5179 20.1265Z" fill="#202244"/>
<path fill-rule="evenodd" clip-rule="evenodd" d="M11.5179 17.2515C11.1219 17.2515 10.7992 16.9288 10.7992 16.5328C10.7992 16.1367 11.1219 15.814 11.5179 15.814C11.9139 15.814 12.2367 16.1367 12.2367 16.5328C12.2367 16.9288 11.9139 17.2515 11.5179 17.2515ZM11.5179 14.3765C11.1219 14.3765 10.7992 14.0538 10.7992 13.6578C10.7992 12.6443 11.4087 11.7286 12.343 11.3362C13.4212 10.9093 13.9688 9.70465 13.5814 8.61215C13.194 7.51749 12.0117 6.92812 10.9055 7.27312C9.79938 7.62171 9.16544 8.78105 9.46803 9.89871C9.56938 10.2832 9.3365 10.6764 8.95197 10.7741C8.56744 10.8755 8.17428 10.6426 8.07582 10.2581C7.59569 8.3994 8.66232 6.49255 10.4958 5.92834C12.3294 5.36124 14.2837 6.33515 14.9348 8.14065C15.586 9.94615 14.7048 11.945 12.9331 12.681C12.5227 12.8326 12.2453 13.2201 12.2367 13.6578C12.2367 14.0538 11.9139 14.3765 11.5179 14.3765Z" fill="#202244"/>
</svg>
