<svg width="64" height="58" viewBox="0 0 64 58" fill="none" xmlns="http://www.w3.org/2000/svg">
<path fill-rule="evenodd" clip-rule="evenodd" d="M42.3282 37.6708C36.6412 43.3588 27.3712 43.3588 21.6722 37.6708C15.9802 31.9678 15.9802 22.6988 21.6722 17.0108C24.5122 14.1598 28.2502 12.7298 32.0002 12.7298C35.8752 12.7258 39.5902 14.2608 42.3282 16.9998C48.0312 22.6988 48.0312 31.9678 42.3282 37.6708ZM46.4882 38.2698C49.1132 34.8038 50.4022 30.5068 50.1212 26.1708C50.0782 25.5388 50.0122 24.9208 49.8982 24.2998C49.3012 20.6988 47.6212 17.2608 44.8402 14.4918C44.6092 14.2608 44.3712 14.0308 44.1292 13.8198C43.6212 13.3708 43.1092 12.9608 42.5782 12.5698C36.2812 8.04981 27.7112 8.04981 21.4102 12.5698C20.8792 12.9488 20.3592 13.3778 19.8592 13.8198C19.6292 14.0388 19.3912 14.2498 19.1602 14.4798C16.4882 17.1398 14.7152 20.5698 14.0902 24.2888C13.9882 24.9098 13.9102 25.5388 13.8712 26.1598C13.5512 31.1988 15.3092 36.3388 19.1482 40.1708C22.6912 43.7308 27.3522 45.4998 32.0002 45.4998C35.8592 45.4998 39.7112 44.2698 42.9412 41.8318L55.0582 56.0588C55.7892 56.9138 56.8402 57.4208 57.9612 57.4638C59.0782 57.5068 60.1682 57.0818 60.9612 56.2888C62.6092 54.6408 62.5002 51.9208 60.7192 50.4018L46.4882 38.2698Z" fill="#292F64"/>
<mask id="mask0_1_1072" style="mask-type:luminance" maskUnits="userSpaceOnUse" x="0" y="0" width="64" height="37">
<path fill-rule="evenodd" clip-rule="evenodd" d="M0 0H63.9998V36.4918H0V0Z" fill="white"/>
</mask>
<g mask="url(#mask0_1_1072)">
<path fill-rule="evenodd" clip-rule="evenodd" d="M52.2188 10.4408C55.1018 10.4408 57.4418 8.10078 57.4418 5.21778C57.4418 2.33878 55.1018 -0.00022375 52.2188 -0.00022375C49.3398 -0.00822375 46.9998 2.33878 46.9998 5.21778C46.9998 8.10078 49.3398 10.4408 52.2188 10.4408ZM55.8908 11.1788L55.7108 11.1598L52.8088 15.3198C52.6798 15.5108 52.4608 15.6248 52.2308 15.6208C51.9998 15.6208 51.7818 15.4998 51.6408 15.3078L48.7308 11.1518L48.5508 11.1708C47.3398 11.3078 46.1798 11.6788 45.1018 12.2888L44.7308 12.4998L45.0508 12.7888C45.3088 13.0188 45.5588 13.2608 45.8088 13.5108C48.6988 16.4018 50.5778 20.0388 51.2388 24.0578L51.2818 24.3198H59.5708L59.8088 20.0888C59.8358 19.7028 60.1638 19.4098 60.5508 19.4208H60.5588C60.9488 19.4408 61.2498 19.7808 61.2308 20.1708L61.0118 24.3198H63.9998V20.2608C63.9998 15.6088 60.5118 11.6988 55.8908 11.1788ZM11.7698 10.4408C14.6478 10.4408 16.9878 8.10078 16.9878 5.21778C16.9878 2.33878 14.6478 -0.00022375 11.7698 -0.00022375C8.89076 -0.00022375 6.55176 2.33878 6.55176 5.21778C6.53876 8.10078 8.89076 10.4408 11.7698 10.4408ZM18.9488 12.7998L19.2618 12.5188L18.8978 12.3078C17.8398 11.7028 16.6638 11.3198 15.4488 11.1788L15.2698 11.1598L12.3788 15.3078C12.2498 15.4798 12.0308 15.5888 11.7888 15.5888C11.5388 15.5888 11.3278 15.4918 11.2108 15.3078L8.30176 11.1518L8.10176 11.1788C3.47976 11.6788 -0.000244141 15.5888 -0.000244141 20.2688V24.3318H2.96876L2.74976 20.1788C2.72976 19.7888 3.03076 19.4488 3.49976 19.4288C3.85176 19.4288 4.15976 19.7418 4.17976 20.1088L4.40976 24.3388H12.6988L12.7378 24.0818C13.4098 20.0698 15.2888 16.4288 18.1908 13.5308C18.4408 13.2688 18.6908 13.0388 18.9488 12.7998ZM31.9998 24.9918C34.4888 24.9918 36.5118 22.9608 36.5118 20.4798C36.5118 17.9998 34.4888 15.9678 31.9998 15.9678C29.5118 15.9678 27.4878 17.9998 27.4878 20.4798C27.4878 22.9608 29.5118 24.9918 31.9998 24.9918ZM35.1598 25.7418L34.9808 25.7178L32.5898 29.1278C32.4688 29.3088 32.2388 29.4098 31.9998 29.4098C31.7618 29.4098 31.5388 29.2998 31.4218 29.1278L29.0308 25.7178L28.8518 25.7418C25.1018 26.1908 22.2698 29.4098 22.2698 33.2098V36.4918H24.5198L24.3398 33.1408C24.3198 32.7498 24.6288 32.4018 25.1018 32.3708C25.4408 32.3708 25.7498 32.6788 25.7698 33.0588L25.9608 36.4918H38.0388L38.2308 33.0588C38.2578 32.6678 38.5898 32.3668 38.9808 32.3778H38.9888C39.3788 32.4018 39.6798 32.7418 39.6598 33.1408L39.4808 36.4918H41.7308V33.2098C41.7188 29.4208 38.8988 26.2108 35.1598 25.7418Z" fill="#292F64"/>
</g>
</svg>
