<svg width="20" height="20" viewBox="0 0 20 20" fill="none" xmlns="http://www.w3.org/2000/svg">
<mask id="mask0_1_1785" style="mask-type:luminance" maskUnits="userSpaceOnUse" x="0" y="0" width="20" height="20">
<path fill-rule="evenodd" clip-rule="evenodd" d="M0.000152588 0H20V19.9999H0.000152588V0Z" fill="white"/>
</mask>
<g mask="url(#mask0_1_1785)">
<path fill-rule="evenodd" clip-rule="evenodd" d="M1.04944 11.3421L19.6209 1.34208C19.908 1.18851 20.053 0.856368 19.9752 0.541368C19.8966 0.222796 19.6123 0.00279611 19.2859 -6.10352e-05H15.0002V1.42851H16.4287L0.379438 10.0864L1.04944 11.3421ZM15.7144 18.5714H18.5716V7.1428H15.7144V18.5714ZM19.2859 5.71422H15.0002C14.6066 5.71422 14.2859 6.03494 14.2859 6.42851V19.2857C14.2859 19.6792 14.6066 19.9999 15.0002 19.9999H19.2859C19.6794 19.9999 20.0002 19.6792 20.0002 19.2857V6.42851C20.0002 6.03494 19.6794 5.71422 19.2859 5.71422ZM8.57158 18.5714H11.4287V9.99994H8.57158V18.5714ZM7.8573 8.57137C7.46301 8.57137 7.14301 8.89208 7.14301 9.28565V19.2857C7.14301 19.6792 7.46301 19.9999 7.8573 19.9999H12.143C12.5366 19.9999 12.8573 19.6792 12.8573 19.2857V9.28565C12.8573 8.89208 12.5366 8.57137 12.143 8.57137H7.8573ZM1.42872 18.5714H4.28587V14.2857H1.42872V18.5714ZM0.714438 19.9999H5.00015C5.39372 19.9999 5.71444 19.6792 5.71444 19.2857V13.5714C5.71444 13.1778 5.39372 12.8571 5.00015 12.8571H0.714438C0.320153 12.8571 0.000152588 13.1778 0.000152588 13.5714V19.2857C0.000152588 19.6792 0.320153 19.9999 0.714438 19.9999Z" fill="#1D1D1B"/>
</g>
</svg>
