<svg width="16" height="19" viewBox="0 0 16 19" fill="none" xmlns="http://www.w3.org/2000/svg">
<path fill-rule="evenodd" clip-rule="evenodd" d="M7.68955 0.0699463C10.4525 0.0699463 13.5512 2.01755 13.9013 5.14685V6.77765C14.021 7.36445 14.2991 7.91345 14.6996 8.35985C14.7239 8.38775 14.7464 8.41565 14.7626 8.44805C15.1289 8.99975 15.3395 9.63605 15.371 10.293L15.3467 10.4586C15.3746 11.3586 15.0758 12.2406 14.4989 12.9372C13.7681 13.7283 12.7664 14.2242 11.69 14.3259C9.03595 14.6139 6.35665 14.6139 3.70615 14.3259C2.64415 14.217 1.66045 13.7211 0.943146 12.9372C0.359046 12.2514 0.0503457 11.373 0.0710457 10.4766V10.3641C0.116946 9.68915 0.341946 9.03485 0.728046 8.47235L0.791946 8.39135C1.19245 7.94135 1.46695 7.39685 1.59025 6.80915V5.17835L1.63165 5.08655C1.76935 4.85435 2.02945 4.72115 2.30305 4.74905C2.60905 4.78415 2.85925 5.01635 2.90785 5.31875V6.95045V7.03775C2.73955 7.85675 2.35975 8.61635 1.80445 9.23915C1.59025 9.57935 1.47055 9.96635 1.45255 10.3641V10.5396C1.43545 11.0985 1.62175 11.6466 1.97995 12.0831C2.47585 12.5925 3.14005 12.9057 3.85015 12.9687C6.41695 13.2468 9.00895 13.2468 11.5775 12.9687C12.3092 12.9021 12.9887 12.5754 13.4864 12.0444C13.8275 11.6187 14.0039 11.0877 13.9895 10.5468V10.3641C13.9715 9.96275 13.8563 9.57665 13.6448 9.23195C13.0688 8.61275 12.6638 7.85315 12.4811 7.03055C12.4775 7.00265 12.4775 6.97115 12.4811 6.94325V5.30435C12.2489 2.91395 9.84505 1.43075 7.75255 1.43075C6.86335 1.43075 5.98765 1.65575 5.21455 2.08775L5.11915 2.13725C4.92295 2.21465 4.70155 2.20025 4.51525 2.09495C4.30015 1.96805 4.16695 1.73675 4.17415 1.49015C4.18045 1.24085 4.32175 1.01585 4.54315 0.903346C5.50255 0.361546 6.58525 0.0771463 7.68955 0.0699463ZM9.19795 15.8829C9.44725 15.6579 9.83065 15.6444 10.0979 15.8658C10.3895 16.1043 10.4318 16.5372 10.1888 16.8252C9.59125 17.6019 8.66785 18.0591 7.68235 18.0699L7.48525 18.0627C6.57805 17.9961 5.73835 17.5497 5.18305 16.8252L5.12275 16.7442C4.95085 16.4598 5.00665 16.0836 5.27395 15.8658C5.56555 15.6228 6.00205 15.6651 6.24415 15.9567C6.35035 16.098 6.47635 16.2204 6.62035 16.3257C7.00015 16.6074 7.47805 16.7271 7.94605 16.6569C8.41765 16.5867 8.83885 16.3365 9.12145 15.9567H9.12775L9.19795 15.8829Z" fill="#167F71"/>
<path d="M13.9013 5.14685H13.9718L13.9709 5.13906L13.9013 5.14685ZM13.9013 6.77765H13.8299L13.8328 6.79164L13.9013 6.77765ZM14.6996 8.35985L14.7524 8.31387L14.7517 8.3131L14.6996 8.35985ZM14.7626 8.44805L14.6996 8.47959L14.7043 8.48677L14.7626 8.44805ZM15.371 10.293L15.4416 10.3034L15.441 10.2897L15.371 10.293ZM15.3467 10.4586L15.2764 10.4483L15.2768 10.4608L15.3467 10.4586ZM14.4989 12.9372L14.5504 12.9848L14.5529 12.9819L14.4989 12.9372ZM11.69 14.3259L11.6835 14.2562L11.6825 14.2564L11.69 14.3259ZM3.70615 14.3259L3.71371 14.2564L3.71329 14.2563L3.70615 14.3259ZM0.943146 12.9372L0.889821 12.9827L0.891503 12.9845L0.943146 12.9372ZM0.0710457 10.4766L0.141046 10.4783V10.4766H0.0710457ZM0.0710457 10.3641L0.00104566 10.3594V10.3641H0.0710457ZM0.728046 8.47235L0.672967 8.42889L0.670333 8.43273L0.728046 8.47235ZM0.791946 8.39135L0.739564 8.34473L0.736988 8.34799L0.791946 8.39135ZM1.59025 6.80915L1.65875 6.82352L1.66025 6.81641V6.80915H1.59025ZM1.59025 5.17835L1.52643 5.14957L1.52025 5.16329V5.17835H1.59025ZM1.63165 5.08655L1.57106 5.05062L1.56783 5.05777L1.63165 5.08655ZM2.30305 4.74905L2.31102 4.6795L2.31015 4.67941L2.30305 4.74905ZM2.90785 5.31875H2.97874L2.97696 5.30764L2.90785 5.31875ZM2.90785 7.03775L2.97641 7.05184L2.97785 7.04486V7.03775H2.90785ZM1.80445 9.23915L1.75147 9.19191L1.74521 9.20185L1.80445 9.23915ZM1.45255 10.3641L1.38255 10.361V10.3641H1.45255ZM1.45255 10.5396L1.52255 10.5418V10.5396H1.45255ZM1.97995 12.0831L1.92564 12.1277L1.92979 12.132L1.97995 12.0831ZM3.85015 12.9687L3.85769 12.8991L3.85633 12.899L3.85015 12.9687ZM11.5775 12.9687L11.5712 12.899L11.57 12.8992L11.5775 12.9687ZM13.4864 12.0444L13.5377 12.0925L13.5411 12.0882L13.4864 12.0444ZM13.9895 10.5468H13.9195L13.9196 10.5487L13.9895 10.5468ZM13.9895 10.3641H14.0596L14.0595 10.361L13.9895 10.3641ZM13.6448 9.23195L13.7057 9.1946L13.6961 9.18427L13.6448 9.23195ZM12.4811 7.03055L12.4114 7.03954L12.4128 7.04572L12.4811 7.03055ZM12.4811 6.94325L12.5511 6.95228V6.94325H12.4811ZM12.4811 5.30435H12.5515L12.5508 5.29758L12.4811 5.30435ZM5.21455 2.08775L5.2468 2.14991L5.24869 2.14885L5.21455 2.08775ZM5.11915 2.13725L5.14497 2.20271L5.15139 2.19938L5.11915 2.13725ZM4.51525 2.09495L4.47967 2.15525L4.4808 2.15589L4.51525 2.09495ZM4.17415 1.49015L4.24412 1.49219L4.24412 1.49191L4.17415 1.49015ZM4.54315 0.903346L4.57489 0.965812L4.57757 0.964298L4.54315 0.903346ZM7.68955 0.0699463V-5.52014e-05L7.68909 -5.22211e-05L7.68955 0.0699463ZM9.19795 15.8829L9.15091 15.8308L9.14723 15.8347L9.19795 15.8829ZM10.0979 15.8658L10.0533 15.9198L10.0536 15.92L10.0979 15.8658ZM10.1888 16.8252L10.1353 16.7801L10.1334 16.7826L10.1888 16.8252ZM7.68235 18.0699L7.67979 18.14L7.68311 18.1399L7.68235 18.0699ZM7.48525 18.0627L7.48012 18.1326L7.48269 18.1327L7.48525 18.0627ZM5.18305 16.8252L5.12689 16.8671L5.12749 16.8678L5.18305 16.8252ZM5.12275 16.7442L5.06256 16.7806L5.0666 16.786L5.12275 16.7442ZM5.27395 15.8658L5.31817 15.9201L5.31876 15.9196L5.27395 15.8658ZM6.24415 15.9567L6.30017 15.9146L6.298 15.912L6.24415 15.9567ZM6.62035 16.3257L6.66205 16.2695L6.66166 16.2692L6.62035 16.3257ZM7.94605 16.6569L7.93574 16.5877L7.93566 16.5877L7.94605 16.6569ZM9.12145 15.9567V15.8867H9.08628L9.06529 15.915L9.12145 15.9567ZM9.12775 15.9567V16.0267H9.15777L9.17846 16.005L9.12775 15.9567ZM7.68955 0.139946C10.4278 0.139946 13.4867 2.07063 13.8318 5.15463L13.9709 5.13906C13.6157 1.96446 10.4773 -5.37112e-05 7.68955 -5.37112e-05V0.139946ZM13.8313 5.14685V6.77765H13.9713V5.14685H13.8313ZM13.8328 6.79164C13.955 7.39076 14.2388 7.95104 14.6475 8.40659L14.7517 8.3131C14.3595 7.87585 14.0871 7.33813 13.9699 6.76366L13.8328 6.79164ZM14.6469 8.40582C14.6705 8.43299 14.688 8.45533 14.7 8.47935L14.8253 8.41674C14.8049 8.37596 14.7774 8.3425 14.7524 8.31387L14.6469 8.40582ZM14.7043 8.48677C15.0637 9.02809 15.2702 9.65219 15.3011 10.2964L15.441 10.2897C15.4089 9.6199 15.1942 8.97141 14.821 8.40933L14.7043 8.48677ZM15.3018 10.2829L15.2775 10.4485L15.416 10.4688L15.4403 10.3032L15.3018 10.2829ZM15.2768 10.4608C15.3042 11.3439 15.011 12.2092 14.445 12.8926L14.5529 12.9819C15.1407 12.272 15.4451 11.3734 15.4167 10.4565L15.2768 10.4608ZM14.4475 12.8897C13.7284 13.6682 12.7427 14.1562 11.6835 14.2563L11.6966 14.3956C12.7902 14.2923 13.8078 13.7885 14.5504 12.9847L14.4475 12.8897ZM11.6825 14.2564C9.03341 14.5438 6.35918 14.5438 3.71371 14.2564L3.69858 14.3955C6.35411 14.6841 9.03848 14.6841 11.6976 14.3955L11.6825 14.2564ZM3.71329 14.2563C2.66837 14.1492 1.70051 13.6612 0.994788 12.89L0.891503 12.9845C1.62039 13.7811 2.61992 14.2849 3.69901 14.3956L3.71329 14.2563ZM0.996436 12.8919C0.423566 12.2192 0.120721 11.3576 0.141027 10.4783L0.00106432 10.475C-0.0200296 11.3885 0.294525 12.2836 0.889855 12.9826L0.996436 12.8919ZM0.141046 10.4766V10.3641H0.00104566V10.4766H0.141046ZM0.140884 10.3689C0.185943 9.70627 0.406815 9.06403 0.785758 8.51196L0.670333 8.43273C0.277077 9.00566 0.0479486 9.67202 0.00120693 10.3594L0.140884 10.3689ZM0.783003 8.5157L0.846903 8.4347L0.736988 8.34799L0.673088 8.42899L0.783003 8.5157ZM0.844235 8.43788C1.25284 7.97877 1.53294 7.42319 1.65875 6.82352L1.52174 6.79477C1.40095 7.3705 1.13205 7.90392 0.739656 8.34481L0.844235 8.43788ZM1.66025 6.80915V5.17835H1.52025V6.80915H1.66025ZM1.65406 5.20712L1.69546 5.11532L1.56783 5.05777L1.52643 5.14957L1.65406 5.20712ZM1.69185 5.12225C1.8157 4.91342 2.04958 4.79356 2.29594 4.81869L2.31015 4.67941C2.00931 4.64873 1.72299 4.79527 1.57144 5.05084L1.69185 5.12225ZM2.29507 4.81859C2.571 4.85024 2.79529 5.05952 2.83873 5.32985L2.97696 5.30764C2.92321 4.97317 2.64709 4.71805 2.31102 4.6795L2.29507 4.81859ZM2.83785 5.31875V6.95045H2.97785V5.31875H2.83785ZM2.83785 6.95045V7.03775H2.97785V6.95045H2.83785ZM2.83928 7.02366C2.67344 7.83068 2.29922 8.57904 1.7522 9.19256L1.85669 9.28573C2.42027 8.65365 2.80565 7.88282 2.97641 7.05184L2.83928 7.02366ZM1.74521 9.20185C1.52449 9.55241 1.40116 9.95119 1.38262 10.361L1.52247 10.3673C1.53993 9.9815 1.656 9.60628 1.86368 9.27644L1.74521 9.20185ZM1.38255 10.3641V10.5396H1.52255V10.3641H1.38255ZM1.38258 10.5375C1.36496 11.1134 1.55693 11.678 1.92583 12.1276L2.03406 12.0387C1.68656 11.6153 1.50593 11.0837 1.52251 10.5418L1.38258 10.5375ZM1.92979 12.132C2.4375 12.6535 3.11736 12.974 3.84396 13.0385L3.85633 12.899C3.16273 12.8375 2.51419 12.5316 2.0301 12.0343L1.92979 12.132ZM3.84261 13.0383C6.41442 13.317 9.01147 13.317 11.5851 13.0383L11.57 12.8992C9.00642 13.1767 6.41947 13.1767 3.85769 12.8992L3.84261 13.0383ZM11.5839 13.0385C12.3323 12.9703 13.0278 12.6361 13.5375 12.0923L13.4354 11.9966C12.9497 12.5148 12.2862 12.834 11.5712 12.899L11.5839 13.0385ZM13.5411 12.0882C13.8926 11.6495 14.0744 11.1023 14.0595 10.545L13.9196 10.5487C13.9335 11.0732 13.7625 11.588 13.4318 12.0007L13.5411 12.0882ZM14.0595 10.5468V10.3641H13.9195V10.5468H14.0595ZM14.0595 10.361C14.041 9.9481 13.9224 9.55043 13.7045 9.19534L13.5852 9.26855C13.7903 9.60286 13.9021 9.97739 13.9196 10.3673L14.0595 10.361ZM13.6961 9.18427C13.1284 8.57396 12.7294 7.8255 12.5495 7.01537L12.4128 7.04572C12.5983 7.88079 13.0093 8.65154 13.5936 9.27962L13.6961 9.18427ZM12.5506 7.02159C12.5477 6.99964 12.5477 6.97416 12.5506 6.9522L12.4117 6.93429C12.4074 6.96814 12.4074 7.00566 12.4117 7.0395L12.5506 7.02159ZM12.5511 6.94325V5.30435H12.4111V6.94325H12.5511ZM12.5508 5.29758C12.3141 2.86028 9.8688 1.36075 7.75255 1.36075V1.50075C9.82129 1.50075 12.1838 2.96762 12.4115 5.31111L12.5508 5.29758ZM7.75255 1.36075C6.85158 1.36075 5.9641 1.58872 5.1804 2.02664L5.24869 2.14885C6.01119 1.72278 6.87511 1.50075 7.75255 1.50075V1.36075ZM5.18231 2.02561L5.08691 2.07511L5.15139 2.19938L5.24679 2.14988L5.18231 2.02561ZM5.09346 2.07213C4.91683 2.14181 4.71753 2.12888 4.54969 2.03401L4.4808 2.15589C4.68556 2.27162 4.92906 2.28748 5.14483 2.20236L5.09346 2.07213ZM4.55081 2.03466C4.35658 1.92006 4.2377 1.71204 4.24412 1.49219L4.10418 1.4881C4.09619 1.76145 4.24371 2.01603 4.47968 2.15524L4.55081 2.03466ZM4.24412 1.49191C4.24978 1.26813 4.37655 1.06652 4.57486 0.965752L4.51144 0.840941C4.26694 0.965177 4.11111 1.21356 4.10417 1.48838L4.24412 1.49191ZM4.57757 0.964298C5.52644 0.428443 6.59742 0.147068 7.69 0.139945L7.68909 -5.22211e-05C6.57307 0.00722421 5.47865 0.294649 4.50872 0.842394L4.57757 0.964298ZM9.24485 15.9349C9.46858 15.733 9.81301 15.7207 10.0533 15.9198L10.1426 15.8119C9.84828 15.5682 9.42591 15.5829 9.15105 15.831L9.24485 15.9349ZM10.0536 15.92C10.3153 16.1341 10.3529 16.5223 10.1353 16.7801L10.2423 16.8704C10.5108 16.5522 10.4638 16.0746 10.1423 15.8117L10.0536 15.92ZM10.1334 16.7826C9.549 17.5421 8.64587 17.9894 7.68158 18L7.68311 18.1399C8.68983 18.1289 9.63349 17.6618 10.2443 16.8679L10.1334 16.7826ZM7.6849 18L7.4878 17.9928L7.48269 18.1327L7.67979 18.1399L7.6849 18ZM7.49037 17.9929C6.60278 17.9278 5.78156 17.4911 5.2386 16.7827L5.12749 16.8678C5.69513 17.6084 6.55331 18.0645 7.48012 18.1326L7.49037 17.9929ZM5.23919 16.7834L5.17889 16.7024L5.0666 16.786L5.1269 16.867L5.23919 16.7834ZM5.18265 16.708C5.02827 16.4526 5.07869 16.1152 5.31816 15.9201L5.22973 15.8116C4.9346 16.0521 4.87342 16.4671 5.06284 16.7805L5.18265 16.708ZM5.31876 15.9196C5.58033 15.7016 5.97268 15.7394 6.19029 16.0015L6.298 15.912C6.03142 15.5909 5.55076 15.544 5.22913 15.8121L5.31876 15.9196ZM6.18819 15.9988C6.29877 16.1459 6.4298 16.2731 6.57903 16.3822L6.66166 16.2692C6.5229 16.1678 6.40192 16.0502 6.3001 15.9147L6.18819 15.9988ZM6.57864 16.382C6.97336 16.6747 7.47 16.7991 7.95643 16.7262L7.93566 16.5877C7.4861 16.6552 7.02693 16.5402 6.66205 16.2695L6.57864 16.382ZM7.95635 16.7262C8.44601 16.6533 8.8838 16.3934 9.1776 15.9985L9.06529 15.915C8.79389 16.2797 8.38928 16.5202 7.93574 16.5877L7.95635 16.7262ZM9.12145 16.0267H9.12775V15.8867H9.12145V16.0267ZM9.17846 16.005L9.24866 15.9312L9.14723 15.8347L9.07703 15.9085L9.17846 16.005Z" fill="#167F71"/>
</svg>
