<svg width="60" height="60" viewBox="0 0 60 60" fill="none" xmlns="http://www.w3.org/2000/svg">
<path fill-rule="evenodd" clip-rule="evenodd" d="M0 40.001H4V0H0V40.001Z" fill="#41EAD4"/>
<path fill-rule="evenodd" clip-rule="evenodd" d="M8 40.001H12V10.001H8V40.001Z" fill="#FF9F1C"/>
<path fill-rule="evenodd" clip-rule="evenodd" d="M16 40.001H20V6.00098H16V40.001Z" fill="#1B98E0"/>
<path fill-rule="evenodd" clip-rule="evenodd" d="M24 40.001H28V22.001H24V40.001Z" fill="#F71735"/>
<path fill-rule="evenodd" clip-rule="evenodd" d="M32 42.001H0V40.001H31V20.001C31 19.45 31.449 19.001 32 19.001C32.551 19.001 33 19.45 33 20.001V41.001C33 41.552 32.551 42.001 32 42.001Z" fill="#4F5D75"/>
<path fill-rule="evenodd" clip-rule="evenodd" d="M14.922 51.9112C9.777 51.0672 8.934 50.2242 8.09 45.0792C8.082 45.0322 8.047 45.0012 8 45.0012C7.953 45.0012 7.918 45.0322 7.91 45.0792C7.066 50.2242 6.223 51.0672 1.078 51.9112C1.031 51.9192 1 51.9542 1 52.0012C1 52.0482 1.031 52.0832 1.078 52.0912C6.223 52.9342 7.066 53.7782 7.91 58.9232C7.918 58.9702 7.953 59.0012 8 59.0012C8.047 59.0012 8.082 58.9702 8.09 58.9232C8.934 53.7782 9.777 52.9342 14.922 52.0912C14.969 52.0832 15 52.0482 15 52.0012C15 51.9542 14.969 51.9192 14.922 51.9112ZM58.922 7.91116C53.777 7.06716 52.934 6.22416 52.09 1.07916C52.082 1.03216 52.047 1.00116 52 1.00116C51.953 1.00116 51.918 1.03216 51.91 1.07916C51.067 6.22416 50.223 7.06716 45.078 7.91116C45.031 7.91916 45 7.95416 45 8.00116C45 8.04816 45.031 8.08316 45.078 8.09116C50.223 8.93516 51.067 9.77816 51.91 14.9232C51.918 14.9702 51.953 15.0012 52 15.0012C52.047 15.0012 52.082 14.9702 52.09 14.9232C52.934 9.77816 53.777 8.93516 58.922 8.09116C58.969 8.08316 59 8.04816 59 8.00116C59 7.95416 58.969 7.91916 58.922 7.91116Z" fill="#1B98E0"/>
<path fill-rule="evenodd" clip-rule="evenodd" d="M43.711 42.001H50.289C55.652 42.001 60 46.349 60 51.712V60.001H34V51.712C34 46.349 38.348 42.001 43.711 42.001Z" fill="#2D3142"/>
<path fill-rule="evenodd" clip-rule="evenodd" d="M50.1095 52.001L47.0005 47.716L43.8905 52.001L43.0005 42.001H51.0005L50.1095 52.001Z" fill="#247BA0"/>
<path fill-rule="evenodd" clip-rule="evenodd" d="M47 48.001L49 42.001H45L47 48.001Z" fill="#F71735"/>
<path fill-rule="evenodd" clip-rule="evenodd" d="M55 60.001H53V51.001C53 50.45 53.449 50.001 54 50.001C54.551 50.001 55 50.45 55 51.001V60.001ZM41 60.001H39V51.001C39 50.45 39.449 50.001 40 50.001C40.551 50.001 41 50.45 41 51.001V60.001Z" fill="#4F5D75"/>
<path fill-rule="evenodd" clip-rule="evenodd" d="M53.922 30.8799V31.4309C55.152 31.5209 56.082 32.5869 56 33.8209C56.008 34.4429 55.789 35.0439 55.391 35.5209C55.027 35.9579 54.488 36.2159 53.922 36.2199C53.852 38.5599 52.477 40.6609 50.359 41.6609L48.461 42.6499C47.543 43.1179 46.457 43.1179 45.539 42.6499L43.641 41.6609C42.586 41.1299 41.688 40.3329 41.031 39.3529C40.414 38.4229 40.086 37.3329 40.078 36.2199C38.887 36.0519 38 35.0319 38 33.8249C38 32.6219 38.887 31.5989 40.078 31.4309V31.0009L48.602 29.0009H51.012L53.922 30.8799Z" fill="#FFBF69"/>
<path fill-rule="evenodd" clip-rule="evenodd" d="M55 32.001C53.574 31.989 52.219 31.368 51.273 30.302L50 31.001L49.91 29.001C48.105 30.962 45.547 32.052 42.887 32.001H39V29.603C39 25.622 41.93 24.001 45.547 24.001H48.453C52.07 24.001 55 25.626 55 29.603V32.001Z" fill="#2D3142"/>
</svg>
