<svg width="21" height="21" viewBox="0 0 21 21" fill="none" xmlns="http://www.w3.org/2000/svg">
<path fill-rule="evenodd" clip-rule="evenodd" d="M15.1154 15.8182C14.9837 15.8172 14.8567 15.7645 14.7629 15.6717L13.3312 14.2362C13.1507 14.039 13.1574 13.7352 13.3459 13.5457C13.5344 13.3562 13.8392 13.3495 14.0364 13.5292L15.1154 14.6112L17.3234 12.3992C17.4474 12.2625 17.6359 12.206 17.8147 12.2517C17.9934 12.2967 18.1319 12.4365 18.1769 12.6142C18.2219 12.7927 18.1652 12.9822 18.0284 13.1052L15.4689 15.6717C15.3752 15.7655 15.2482 15.8182 15.1154 15.8182ZM11.6622 15.875C11.2297 16.083 10.7767 16.244 10.3097 16.3552C10.2307 16.375 10.1487 16.375 10.0707 16.3552C7.15541 15.6455 5.32441 13.4402 4.46616 9.61495C4.40641 9.34645 4.57641 9.07995 4.84466 9.0212C5.11341 8.9617 5.38016 9.1317 5.43841 9.40045C6.53141 14.2705 9.16716 15.1005 10.1884 15.3552C10.5784 15.2625 10.9562 15.1287 11.3177 14.955C11.3957 15.2742 11.5119 15.583 11.6622 15.875ZM18.5334 10.4002C17.8049 9.79695 16.9034 9.4392 15.9592 9.37995C16.1097 8.67545 16.2199 7.96295 16.2882 7.2452C16.3049 7.1082 16.2609 6.97145 16.1682 6.8702C16.0802 6.76445 15.9514 6.70095 15.8137 6.69495C13.6642 6.6052 11.7569 5.7097 10.5792 4.2352C10.4817 4.12095 10.3399 4.05545 10.1897 4.05545C10.0402 4.05545 9.89766 4.12095 9.80091 4.2352C8.62341 5.7097 6.71691 6.6052 4.56566 6.69495C4.28941 6.7057 4.07441 6.9382 4.08616 7.2147C4.09691 7.49095 4.32941 7.7057 4.60566 7.69495C6.82641 7.6052 8.82741 6.73995 10.1897 5.30545C11.5364 6.6697 13.3292 7.5037 15.2394 7.65495C15.1672 8.2517 15.0647 8.84445 14.9309 9.43045C12.7687 9.80145 11.1887 11.6767 11.1877 13.87C11.1877 14.2352 11.2307 14.5995 11.3177 14.955C11.3967 15.2742 11.5119 15.583 11.6622 15.875C12.0929 16.743 12.7932 17.4482 13.6584 17.8847C12.5892 18.5252 11.4142 18.9687 10.1897 19.1952C4.02666 17.9852 1.00216 12.62 1.20716 3.2452C1.21016 3.1932 1.24241 3.1472 1.28941 3.1267C1.33616 3.1052 1.39191 3.11295 1.43191 3.1452C2.25416 3.69245 3.22391 3.97545 4.21116 3.95495C6.07341 3.95495 7.59466 3.0847 8.09391 1.73995C8.19066 1.4317 8.46966 1.21545 8.79316 1.19995H11.5929C11.9142 1.21745 12.1907 1.4327 12.2864 1.73995C12.5569 2.43045 13.0647 3.0007 13.7189 3.35045C14.4689 3.7607 15.3137 3.96845 16.1682 3.95495C17.1564 3.97545 18.1262 3.69245 18.9484 3.1452C18.9719 3.1257 19.0022 3.11495 19.0334 3.11495C19.1077 3.11295 19.1692 3.1707 19.1729 3.2452C19.2619 5.6472 19.0472 8.05145 18.5334 10.4002ZM15.9992 17.3505C15.8927 17.3642 15.7864 17.371 15.6789 17.37C15.3214 17.372 14.9659 17.3162 14.6262 17.205C13.7014 16.915 12.9407 16.249 12.5304 15.37C12.3772 15.0625 12.2757 14.7312 12.2307 14.3905C12.2004 14.2187 12.1847 14.0447 12.1857 13.87C12.1867 12.3417 13.1779 10.99 14.6349 10.5302H14.6409C14.9757 10.4237 15.3264 10.37 15.6779 10.37H15.7239C16.6809 10.3827 17.5899 10.79 18.2384 11.495C18.5412 11.8172 18.7767 12.1962 18.9319 12.6102C19.0909 13.0115 19.1722 13.4382 19.1722 13.87C19.1722 15.6757 17.7972 17.1845 15.9992 17.3505ZM20.1712 3.21945C20.1584 2.6022 19.6507 2.10945 19.0324 2.11495C18.7952 2.11595 18.5627 2.1912 18.3694 2.32995C17.7149 2.75495 16.9484 2.97245 16.1692 2.95495C15.0764 2.94995 13.6487 2.5447 13.2249 1.3952C12.9874 0.692451 12.3352 0.213951 11.5929 0.199951H8.79316C8.05016 0.213951 7.39566 0.691201 7.15641 1.3952C6.73166 2.5447 5.30491 2.95495 4.21216 2.95495C3.43291 2.97145 2.66616 2.7537 2.01191 2.32995C1.81866 2.1912 1.58616 2.11595 1.34891 2.11495C0.730659 2.10945 0.222909 2.6022 0.210159 3.21945C-0.00959098 13.205 3.31966 18.915 10.1019 20.1952C10.1312 20.199 10.1614 20.201 10.1917 20.2C10.2229 20.201 10.2552 20.199 10.2864 20.1952C11.9367 19.909 13.5032 19.2597 14.8722 18.2947C15.1389 18.3455 15.4094 18.37 15.6809 18.37C18.1624 18.3642 20.1712 16.3515 20.1722 13.87C20.1739 12.9422 19.8859 12.037 19.3489 11.2802C19.9669 9.00945 20.2404 6.3232 20.1712 3.21945Z" fill="#202244"/>
<path d="M14.7629 15.6717L14.6213 15.8129L14.6222 15.8139L14.7629 15.6717ZM13.3312 14.2362L13.1835 14.3713L13.1896 14.3774L13.3312 14.2362ZM14.0364 13.5292L14.1782 13.3878L14.1711 13.3814L14.0364 13.5292ZM15.1154 14.6112L14.9738 14.7524L15.1153 14.8944L15.257 14.7525L15.1154 14.6112ZM17.3234 12.3992L17.4651 12.5407L17.4716 12.5335L17.3234 12.3992ZM17.8147 12.2517L17.7651 12.4455L17.7658 12.4456L17.8147 12.2517ZM18.1769 12.6142L18.3708 12.5653L18.3708 12.5651L18.1769 12.6142ZM18.0284 13.1052L17.8945 12.9563L17.8868 12.964L18.0284 13.1052ZM15.4689 15.6717L15.6103 15.8131L15.6105 15.8129L15.4689 15.6717ZM10.3097 16.3552L10.2633 16.1606L10.2612 16.1612L10.3097 16.3552ZM10.0707 16.3552L10.1198 16.1613L10.118 16.1609L10.0707 16.3552ZM4.46616 9.61495L4.27093 9.65839L4.27101 9.65874L4.46616 9.61495ZM4.84466 9.0212L4.88745 9.21657L4.88789 9.21647L4.84466 9.0212ZM5.43841 9.40045L5.24294 9.44282L5.24326 9.44425L5.43841 9.40045ZM10.1884 15.3552L10.14 15.5493L10.1873 15.561L10.2347 15.5498L10.1884 15.3552ZM11.3177 14.955L11.5119 14.9075L11.4534 14.6678L11.231 14.7747L11.3177 14.955ZM15.9592 9.37995L15.7636 9.33817L15.7151 9.56503L15.9466 9.57956L15.9592 9.37995ZM16.2882 7.2452L16.0896 7.22092L16.0891 7.22627L16.2882 7.2452ZM16.1682 6.8702L16.0143 6.99828L16.0207 7.0053L16.1682 6.8702ZM15.8137 6.69495L15.8224 6.49514L15.822 6.49513L15.8137 6.69495ZM10.5792 4.2352L10.7355 4.11032L10.7313 4.10537L10.5792 4.2352ZM9.80091 4.2352L9.64822 4.1059L9.64463 4.1104L9.80091 4.2352ZM4.56566 6.69495L4.57344 6.8948L4.574 6.89478L4.56566 6.69495ZM4.08616 7.2147L4.28601 7.20692L4.28598 7.20621L4.08616 7.2147ZM4.60566 7.69495L4.61344 7.8948L4.61374 7.89479L4.60566 7.69495ZM10.1897 5.30545L10.332 5.16495L10.1869 5.01794L10.0446 5.16773L10.1897 5.30545ZM15.2394 7.65495L15.438 7.67899L15.463 7.47203L15.2552 7.45557L15.2394 7.65495ZM14.9309 9.43045L14.9647 9.62757L15.0962 9.60501L15.1259 9.47496L14.9309 9.43045ZM11.1877 13.87L10.9877 13.8699V13.87H11.1877ZM11.3177 14.955L11.1234 15.0025L11.1235 15.003L11.3177 14.955ZM11.6622 15.875L11.8413 15.786L11.84 15.7834L11.6622 15.875ZM13.6584 17.8847L13.7612 18.0563L14.0727 17.8697L13.7485 17.7061L13.6584 17.8847ZM10.1897 19.1952L10.1511 19.3915L10.1885 19.3988L10.226 19.3919L10.1897 19.1952ZM1.20716 3.2452L1.00736 3.23367L1.00721 3.24083L1.20716 3.2452ZM1.28941 3.1267L1.36938 3.31006L1.37297 3.30841L1.28941 3.1267ZM1.43191 3.1452L1.30638 3.3009L1.31349 3.30663L1.3211 3.3117L1.43191 3.1452ZM4.21116 3.95495V3.75491L4.20701 3.75499L4.21116 3.95495ZM8.09391 1.73995L8.28165 1.80965L8.28473 1.79984L8.09391 1.73995ZM8.79316 1.19995V0.999722L8.78359 1.00018L8.79316 1.19995ZM11.5929 1.19995L11.6038 0.999951H11.5929V1.19995ZM12.2864 1.73995L12.0955 1.79946L12.0976 1.80626L12.1002 1.8129L12.2864 1.73995ZM13.7189 3.35045L13.8149 3.17498L13.8132 3.17407L13.7189 3.35045ZM16.1682 3.95495L16.1723 3.75486L16.165 3.75498L16.1682 3.95495ZM18.9484 3.1452L19.0592 3.3117L19.068 3.30585L19.0761 3.29911L18.9484 3.1452ZM19.0334 3.11495V3.31502L19.0388 3.31488L19.0334 3.11495ZM19.1729 3.2452L19.3728 3.2378L19.3727 3.23515L19.1729 3.2452ZM15.6789 17.37L15.6808 17.1699L15.6778 17.17L15.6789 17.37ZM14.6262 17.205L14.6884 17.0149L14.686 17.0141L14.6262 17.205ZM12.5304 15.37L12.7117 15.2853L12.7094 15.2807L12.5304 15.37ZM12.2307 14.3905L12.4291 14.3642L12.4276 14.3558L12.2307 14.3905ZM12.1857 13.87L12.3857 13.8711L12.3857 13.8701L12.1857 13.87ZM14.6349 10.5302V10.3302H14.6041L14.5747 10.3395L14.6349 10.5302ZM14.6409 10.5302V10.7302H14.672L14.7015 10.7208L14.6409 10.5302ZM15.7239 10.37L15.7266 10.17H15.7239V10.37ZM18.2384 11.495L18.0912 11.6304L18.0926 11.6319L18.2384 11.495ZM18.9319 12.6102L18.7446 12.6804L18.746 12.6839L18.9319 12.6102ZM19.0324 2.11495L19.0333 2.31495L19.0342 2.31494L19.0324 2.11495ZM18.3694 2.32995L18.4785 2.49787L18.4861 2.49241L18.3694 2.32995ZM16.1692 2.95495L16.1736 2.75497L16.1701 2.75495L16.1692 2.95495ZM13.2249 1.3952L13.0354 1.45926L13.0373 1.46438L13.2249 1.3952ZM11.5929 0.199951L11.5967 -4.88311e-05H11.5929V0.199951ZM8.79316 0.199951V-8.43257e-05L8.78939 -1.33365e-05L8.79316 0.199951ZM7.15641 1.3952L7.34408 1.46455L7.34577 1.45956L7.15641 1.3952ZM4.21216 2.95495V2.75491L4.20793 2.755L4.21216 2.95495ZM2.01191 2.32995L1.89513 2.4926L1.90318 2.49782L2.01191 2.32995ZM1.34891 2.11495L1.34713 2.31495L1.34807 2.31495L1.34891 2.11495ZM0.210159 3.21945L0.410111 3.22385L0.410116 3.22358L0.210159 3.21945ZM10.1019 20.1952L10.0647 20.3921L10.0765 20.3936L10.1019 20.1952ZM10.1917 20.2L10.1981 19.9996L10.1851 20.0001L10.1917 20.2ZM10.2864 20.1952L10.3103 20.394L10.3206 20.3923L10.2864 20.1952ZM14.8722 18.2947L14.9095 18.0982L14.8262 18.0824L14.7569 18.1312L14.8722 18.2947ZM15.6809 18.37V18.57L15.6814 18.57L15.6809 18.37ZM20.1722 13.87L19.9722 13.8696V13.8699L20.1722 13.87ZM19.3489 11.2802L19.1559 11.2277L19.1311 11.3189L19.1858 11.3959L19.3489 11.2802ZM15.1169 15.6182C15.0373 15.6176 14.9603 15.5856 14.9036 15.5295L14.6222 15.8139C14.7531 15.9433 14.93 16.0168 15.1139 16.0182L15.1169 15.6182ZM14.9045 15.5305L13.4728 14.095L13.1896 14.3774L14.6213 15.8129L14.9045 15.5305ZM13.4787 14.1012C13.3705 13.9829 13.3743 13.8007 13.4877 13.6867L13.2041 13.4047C12.9405 13.6697 12.9308 14.095 13.1836 14.3712L13.4787 14.1012ZM13.4877 13.6867C13.6004 13.5735 13.7833 13.5691 13.9017 13.677L14.1711 13.3814C13.8951 13.1298 13.4684 13.139 13.2041 13.4047L13.4877 13.6867ZM13.8948 13.6704L14.9738 14.7524L15.257 14.47L14.178 13.388L13.8948 13.6704ZM15.257 14.7525L17.465 12.5405L17.1819 12.2579L14.9739 14.4699L15.257 14.7525ZM17.4716 12.5335C17.5457 12.4518 17.6581 12.4181 17.7651 12.4455L17.8643 12.0579C17.6138 11.9938 17.3491 12.0731 17.1752 12.2649L17.4716 12.5335ZM17.7658 12.4456C17.8726 12.4725 17.9559 12.5562 17.983 12.6633L18.3708 12.5651C18.3079 12.3167 18.1142 12.1209 17.8635 12.0578L17.7658 12.4456ZM17.983 12.6631C18.0101 12.7705 17.9756 12.8837 17.8947 12.9565L18.1622 13.2539C18.3547 13.0807 18.4338 12.8149 18.3708 12.5653L17.983 12.6631ZM17.8868 12.964L15.3273 15.5305L15.6105 15.8129L18.17 13.2464L17.8868 12.964ZM15.3275 15.5303C15.2712 15.5866 15.195 15.6182 15.1154 15.6182V16.0182C15.3013 16.0182 15.4792 15.9443 15.6103 15.8131L15.3275 15.5303ZM11.5755 15.6947C11.1558 15.8965 10.7163 16.0527 10.2633 16.1606L10.356 16.5498C10.837 16.4352 11.3035 16.2694 11.7488 16.0552L11.5755 15.6947ZM10.2612 16.1612C10.2138 16.173 10.1653 16.1729 10.1198 16.1613L10.0216 16.5491C10.132 16.577 10.2475 16.5769 10.3582 16.5492L10.2612 16.1612ZM10.118 16.1609C8.70034 15.8157 7.55173 15.1094 6.65084 14.0255C5.74758 12.9389 5.08587 11.4634 4.66131 9.57117L4.27101 9.65874C4.7047 11.5917 5.38761 13.1316 6.34323 14.2812C7.30122 15.4338 8.52573 16.1849 10.0233 16.5495L10.118 16.1609ZM4.66138 9.57151C4.62564 9.4109 4.72754 9.25159 4.88745 9.21657L4.80187 8.82583C4.42528 8.90831 4.18718 9.282 4.27093 9.65839L4.66138 9.57151ZM4.88789 9.21647C5.04906 9.18079 5.2083 9.28296 5.24295 9.44282L5.63387 9.35809C5.55202 8.98044 5.17776 8.74261 4.80143 8.82593L4.88789 9.21647ZM5.24326 9.44425C5.79701 11.9116 6.74657 13.3754 7.70501 14.2558C8.66329 15.1361 9.61429 15.4181 10.14 15.5493L10.2368 15.1611C9.74128 15.0375 8.86378 14.7772 7.97562 13.9613C7.08762 13.1455 6.1728 11.7593 5.63355 9.35665L5.24326 9.44425ZM10.2347 15.5498C10.6386 15.4537 11.0298 15.3152 11.4043 15.1352L11.231 14.7747C10.8825 14.9422 10.5183 15.0712 10.1421 15.1606L10.2347 15.5498ZM11.1234 15.0024C11.2052 15.3373 11.327 15.6608 11.4843 15.9665L11.84 15.7834C11.6968 15.5051 11.5861 15.2111 11.5119 14.9075L11.1234 15.0024ZM18.661 10.2462C17.9 9.616 16.9582 9.24225 15.9717 9.18034L15.9466 9.57956C16.8486 9.63616 17.7098 9.9779 18.4059 10.5542L18.661 10.2462ZM16.1547 9.42173C16.3068 8.7098 16.4183 7.98968 16.4873 7.26413L16.0891 7.22627C16.0215 7.93623 15.9125 8.6411 15.7636 9.33817L16.1547 9.42173ZM16.4867 7.26947C16.5105 7.0744 16.4478 6.87943 16.3156 6.73511L16.0207 7.0053C16.074 7.06347 16.0993 7.142 16.0896 7.22093L16.4867 7.26947ZM16.3219 6.74227C16.1976 6.59291 16.0161 6.50358 15.8224 6.49514L15.805 6.89476C15.8868 6.89832 15.9627 6.93599 16.0144 6.99813L16.3219 6.74227ZM15.822 6.49513C13.7212 6.40741 11.8717 5.53299 10.7354 4.11038L10.4229 4.36002C11.6421 5.88641 13.6071 6.80299 15.8053 6.89478L15.822 6.49513ZM10.7313 4.10537C10.5959 3.94667 10.3985 3.85545 10.1897 3.85545V4.25545C10.2813 4.25545 10.3675 4.29523 10.427 4.36503L10.7313 4.10537ZM10.1897 3.85545C9.98182 3.85545 9.78333 3.94648 9.64828 4.10595L9.95354 4.36445C10.012 4.29543 10.0985 4.25545 10.1897 4.25545V3.85545ZM9.64463 4.1104C8.50858 5.53299 6.65983 6.40741 4.55732 6.49512L4.574 6.89478C6.77399 6.80299 8.73824 5.88641 9.95719 4.36L9.64463 4.1104ZM4.55788 6.4951C4.17128 6.51015 3.86988 6.83576 3.88634 7.22319L4.28598 7.20621C4.27894 7.04064 4.40754 6.90126 4.57344 6.8948L4.55788 6.4951ZM3.88631 7.22248C3.90136 7.60928 4.22699 7.90984 4.61344 7.8948L4.59788 7.4951C4.43183 7.50156 4.29246 7.37262 4.28601 7.20692L3.88631 7.22248ZM4.61374 7.89479C6.88044 7.80318 8.93265 6.91957 10.3347 5.44317L10.0446 5.16773C8.72217 6.56033 6.77237 7.40722 4.59758 7.49511L4.61374 7.89479ZM10.0473 5.44596C11.4278 6.84438 13.2655 7.69929 15.2236 7.85433L15.2552 7.45557C13.3928 7.30812 11.645 6.49502 10.332 5.16495L10.0473 5.44596ZM15.0409 7.63091C14.9694 8.22095 14.8681 8.80686 14.7359 9.38595L15.1259 9.47496C15.2612 8.88204 15.3649 8.28246 15.438 7.67899L15.0409 7.63091ZM14.8971 9.23333C12.6388 9.62081 10.9887 11.5793 10.9877 13.8699L11.3877 13.87C11.3886 11.7741 12.8985 9.98209 14.9647 9.62757L14.8971 9.23333ZM10.9877 13.87C10.9877 14.2509 11.0325 14.6311 11.1234 15.0025L11.5119 14.9074C11.4288 14.5678 11.3877 14.2195 11.3877 13.87H10.9877ZM11.1235 15.003C11.2062 15.3371 11.3269 15.6604 11.4843 15.9665L11.84 15.7834C11.697 15.5055 11.5871 15.2113 11.5118 14.9069L11.1235 15.003ZM11.483 15.9639C11.933 16.8706 12.6644 17.6073 13.5683 18.0633L13.7485 17.7061C12.9219 17.2891 12.2529 16.6154 11.8413 15.786L11.483 15.9639ZM13.5556 17.7131C12.5069 18.3414 11.3544 18.7764 10.1533 18.9985L10.226 19.3919C11.4739 19.161 12.6714 18.7091 13.7612 18.0563L13.5556 17.7131ZM10.2282 18.9989C7.20254 18.4049 4.95605 16.7959 3.48466 14.1838C2.00833 11.563 1.30501 7.9185 1.40711 3.24957L1.00721 3.24083C0.904303 7.94665 1.61074 11.6722 3.13615 14.3801C4.66652 17.0969 7.01378 18.7755 10.1511 19.3915L10.2282 18.9989ZM1.40683 3.25672C1.40549 3.27981 1.3916 3.30033 1.36937 3.31002L1.20945 2.94338C1.09322 2.99408 1.01482 3.10659 1.00749 3.23368L1.40683 3.25672ZM1.37297 3.30841C1.3485 3.31966 1.32355 3.31474 1.30638 3.3009L1.55744 2.9895C1.46027 2.91116 1.32382 2.89074 1.20584 2.945L1.37297 3.30841ZM1.3211 3.3117C2.17726 3.88152 3.18711 4.17626 4.21531 4.15491L4.20701 3.75499C3.2607 3.77464 2.33106 3.50338 1.54272 2.97871L1.3211 3.3117ZM4.21116 4.15495C6.12634 4.15495 7.74366 3.258 8.2814 1.80956L7.90641 1.67034C7.44566 2.91141 6.02048 3.75495 4.21116 3.75495V4.15495ZM8.28473 1.79984C8.35645 1.57135 8.56327 1.4112 8.80273 1.39972L8.78359 1.00018C8.37605 1.01971 8.02487 1.29205 7.90309 1.68006L8.28473 1.79984ZM8.79316 1.39995H11.5929V0.999951H8.79316V1.39995ZM11.582 1.39966C11.8199 1.41261 12.0246 1.57196 12.0955 1.79946L12.4774 1.68045C12.3567 1.29345 12.0084 1.02229 11.6038 1.00025L11.582 1.39966ZM12.1002 1.8129C12.3881 2.54785 12.9285 3.15471 13.6246 3.52683L13.8132 3.17407C13.2008 2.8467 12.7257 2.31306 12.4726 1.667L12.1002 1.8129ZM13.6229 3.52592C14.4034 3.95286 15.2824 4.16897 16.1713 4.15493L16.165 3.75498C15.3449 3.76793 14.5344 3.56854 13.8149 3.17499L13.6229 3.52592ZM16.164 4.15491C17.1932 4.17626 18.203 3.88153 19.0592 3.3117L18.8376 2.97871C18.0493 3.50337 17.1196 3.77465 16.1723 3.75499L16.164 4.15491ZM19.0761 3.29911C19.0627 3.31021 19.0475 3.31495 19.0334 3.31495V2.91495C18.9568 2.91495 18.8811 2.94119 18.8207 2.99129L19.0761 3.29911ZM19.0388 3.31488C19.0025 3.31586 18.9748 3.28731 18.9732 3.25526L19.3727 3.23515C19.3635 3.05409 19.2128 2.91005 19.028 2.91502L19.0388 3.31488ZM18.973 3.25261C19.0614 5.63778 18.8482 8.02518 18.338 10.3575L18.7288 10.4429C19.2461 8.07772 19.4624 5.65662 19.3728 3.2378L18.973 3.25261ZM15.9735 17.1521C15.8756 17.1647 15.7786 17.1709 15.6808 17.17L15.677 17.5699C15.7942 17.571 15.9097 17.5637 16.0248 17.5488L15.9735 17.1521ZM15.6778 17.17C15.3418 17.1718 15.0077 17.1194 14.6884 17.0149L14.5639 17.395C14.9241 17.513 15.301 17.5721 15.68 17.5699L15.6778 17.17ZM14.686 17.0141C13.8149 16.7409 13.0982 16.1135 12.7116 15.2854L12.3492 15.4545C12.7832 16.3844 13.5879 17.089 14.5663 17.3958L14.686 17.0141ZM12.7094 15.2807C12.566 14.993 12.471 14.683 12.4289 14.3643L12.0324 14.4166C12.0803 14.7794 12.1883 15.1319 12.3514 15.4592L12.7094 15.2807ZM12.4276 14.3558C12.3993 14.1951 12.3847 14.0331 12.3857 13.8711L11.9857 13.8688C11.9846 14.0563 12.0015 14.2424 12.0337 14.4251L12.4276 14.3558ZM12.3857 13.8701C12.3866 12.429 13.3213 11.1544 14.6951 10.7209L14.5747 10.3395C13.0345 10.8255 11.9867 12.2544 11.9857 13.8698L12.3857 13.8701ZM14.6349 10.7302H14.6409V10.3302H14.6349V10.7302ZM14.7015 10.7208C15.0164 10.6206 15.3467 10.57 15.6779 10.57V10.17C15.3061 10.17 14.9349 10.2268 14.5803 10.3396L14.7015 10.7208ZM15.6779 10.57H15.7239V10.17H15.6779V10.57ZM15.7212 10.5699C16.6231 10.5819 17.4798 10.9657 18.0912 11.6304L18.3856 11.3596C17.7 10.6142 16.7388 10.1835 15.7266 10.17L15.7212 10.5699ZM18.0926 11.6319C18.3772 11.9348 18.5987 12.2911 18.7446 12.6804L19.1192 12.54C18.9547 12.1013 18.7051 11.6996 18.3842 11.358L18.0926 11.6319ZM18.746 12.6839C18.8957 13.0616 18.9722 13.4634 18.9722 13.87H19.3722C19.3722 13.413 19.2862 12.9613 19.1178 12.5365L18.746 12.6839ZM18.9722 13.87C18.9722 15.5724 17.6758 16.9948 15.9808 17.1513L16.0175 17.5496C17.9185 17.3741 19.3722 15.779 19.3722 13.87H18.9722ZM20.3711 3.21532C20.3561 2.4884 19.7583 1.90849 19.0306 1.91496L19.0342 2.31494C19.5431 2.31042 19.9607 2.716 19.9712 3.22358L20.3711 3.21532ZM19.0316 1.91495C18.7528 1.91613 18.4798 2.0045 18.2528 2.16749L18.4861 2.49241C18.6455 2.37791 18.8376 2.31577 19.0333 2.31495L19.0316 1.91495ZM18.2605 2.16221C17.6397 2.56532 16.9127 2.7716 16.1736 2.755L16.1647 3.1549C16.9841 3.1733 17.7901 2.94458 18.4783 2.49769L18.2605 2.16221ZM16.1701 2.75495C15.645 2.75255 15.0437 2.65356 14.5281 2.42184C14.0134 2.1905 13.6002 1.83504 13.4126 1.32602L13.0373 1.46438C13.2734 2.10486 13.7859 2.52678 14.3642 2.78669C14.9416 3.04622 15.6006 3.15235 16.1682 3.15495L16.1701 2.75495ZM13.4144 1.33117C13.1499 0.548615 12.4235 0.0155813 11.5967 -1.3262e-05L11.5891 0.399916C12.2468 0.412321 12.8249 0.836287 13.0354 1.45923L13.4144 1.33117ZM11.5929 -4.88311e-05H8.79316V0.399951H11.5929V-4.88311e-05ZM8.78939 -1.33365e-05C7.96229 0.0155714 7.23346 0.546911 6.96705 1.33085L7.34577 1.45956C7.55786 0.835492 8.13803 0.412331 8.79693 0.399916L8.78939 -1.33365e-05ZM6.96881 1.32588C6.7806 1.83521 6.36711 2.19192 5.85261 2.4238C5.33729 2.65606 4.73655 2.75495 4.21216 2.75495V3.15495C4.78052 3.15495 5.43953 3.04872 6.01696 2.78848C6.59521 2.52786 7.10746 2.10469 7.34401 1.46452L6.96881 1.32588ZM4.20793 2.755C3.46868 2.77065 2.74128 2.56407 2.12063 2.16209L1.90318 2.49782C2.59104 2.94333 3.39714 3.17225 4.21639 3.15491L4.20793 2.755ZM2.12855 2.16749C1.90154 2.0045 1.62856 1.91613 1.34975 1.91495L1.34807 2.31495C1.54376 2.31577 1.73578 2.37791 1.89526 2.49241L2.12855 2.16749ZM1.35069 1.91496C0.623055 1.90849 0.025217 2.4884 0.0102017 3.21532L0.410116 3.22358C0.420601 2.716 0.838263 2.31042 1.34713 2.31494L1.35069 1.91496ZM0.0102074 3.21505C-0.100091 8.22704 0.679066 12.1925 2.35749 15.0725C4.04088 17.961 6.61982 19.7414 10.0648 20.3917L10.139 19.9987C6.80175 19.3687 4.32494 17.654 2.70308 14.8711C1.07625 12.0796 0.300659 8.19736 0.410111 3.22385L0.0102074 3.21505ZM10.0765 20.3936C10.1138 20.3984 10.1551 20.4013 10.1983 20.3998L10.1851 20.0001C10.1678 20.0006 10.1485 19.9995 10.1273 19.9968L10.0765 20.3936ZM10.1853 20.3998C10.229 20.4012 10.2716 20.3984 10.3102 20.3938L10.2626 19.9966C10.2387 19.9995 10.2169 20.0007 10.1981 20.0001L10.1853 20.3998ZM10.3206 20.3923C12 20.1009 13.5942 19.4402 14.9874 18.4582L14.7569 18.1312C13.4121 19.0792 11.8733 19.717 10.2522 19.9981L10.3206 20.3923ZM14.8348 18.4912C15.1143 18.5444 15.3974 18.57 15.6809 18.57V18.17C15.4215 18.17 15.1635 18.1465 14.9095 18.0982L14.8348 18.4912ZM15.6814 18.57C18.2731 18.5639 20.3711 16.4618 20.3722 13.87L19.9722 13.8699C19.9712 16.2411 18.0517 18.1645 15.6804 18.17L15.6814 18.57ZM20.3722 13.8703C20.374 12.9009 20.0731 11.9551 19.512 11.1645L19.1858 11.3959C19.6988 12.1188 19.9738 12.9835 19.9722 13.8696L20.3722 13.8703ZM19.5419 11.3327C20.1663 9.03855 20.4407 6.33218 20.3711 3.21499L19.9712 3.22391C20.0402 6.31422 19.7676 8.98035 19.1559 11.2277L19.5419 11.3327Z" fill="#202244"/>
</svg>
