<svg width="19" height="24" viewBox="0 0 19 24" fill="none" xmlns="http://www.w3.org/2000/svg">
<mask id="mask0_1_1808" style="mask-type:luminance" maskUnits="userSpaceOnUse" x="0" y="1" width="20" height="23">
<path fill-rule="evenodd" clip-rule="evenodd" d="M0 1.04022H19.0017V23.9218H0V1.04022Z" fill="white"/>
</mask>
<g mask="url(#mask0_1_1808)">
<path fill-rule="evenodd" clip-rule="evenodd" d="M14.527 13.8278C14.738 14.3868 14.879 14.9688 14.949 15.5618L15.093 13.7928L14.527 13.8278ZM11.504 19.4328L12.57 20.4958C13.496 19.3508 14 17.9178 14 16.4458C14 15.4458 13.777 14.4848 13.34 13.5858C13.261 13.4368 13.269 13.2578 13.355 13.1138C13.437 12.9688 13.59 12.8748 13.757 12.8678L15.609 12.7658C15.754 12.7578 15.89 12.8118 15.996 12.9138C16.097 13.0188 16.148 13.1598 16.136 13.3048L15.687 18.8078C15.652 19.2308 15.843 19.4568 16.011 19.5748C16.285 19.7618 16.679 19.7968 16.972 19.6568C17.234 19.5318 17.39 19.2848 17.414 18.9498L17.996 11.8828C18.015 11.6328 17.929 11.3898 17.754 11.2148C17.578 11.0348 17.332 10.9418 17.082 10.9528L12.304 11.2188C12.101 11.2348 11.914 11.1248 11.824 10.9418C11.734 10.7618 11.765 10.5428 11.902 10.3908L14.527 7.40679C14.742 7.15979 14.839 6.82779 14.789 6.49579C14.746 6.19579 14.586 5.93379 14.363 5.79679V5.79279C12.277 4.58179 10.191 3.37079 8.102 2.15979C7.777 1.96879 7.367 2.00779 7.09 2.25779L4.027 4.98879C3.555 5.40979 3.694 5.90679 3.964 6.20279C4.23 6.50379 4.711 6.70279 5.184 6.28179L7.507 4.21479C7.668 4.07079 7.902 4.04679 8.09 4.15679L10.007 5.26979C10.136 5.34379 10.226 5.47279 10.25 5.62079C10.273 5.76979 10.23 5.91779 10.132 6.03179L6.742 9.88279C6.668 9.96879 6.562 10.0278 6.448 10.0428C5.344 10.2228 4.309 10.6838 3.438 11.3828L4.504 12.4498C5.367 11.8008 6.418 11.4528 7.496 11.4528C9.477 11.4368 11.277 12.6098 12.062 14.4258C12.808 16.1138 12.59 17.9918 11.504 19.4328ZM12.593 21.7308C12.461 21.7258 12.336 21.6758 12.242 21.5818L10.472 19.8168C10.285 19.6288 10.277 19.3248 10.457 19.1288C11.531 17.9648 11.8 16.2688 11.148 14.8278C10.519 13.3748 9.078 12.4418 7.496 12.4528C6.5 12.4528 5.547 12.8248 4.809 13.4918C4.609 13.6718 4.309 13.6638 4.117 13.4758L2.352 11.7108C2.254 11.6138 2.203 11.4848 2.203 11.3478C2.207 11.2148 2.262 11.0858 2.362 10.9918C3.402 10.0118 4.703 9.35179 6.109 9.08579L8.98 5.82779L7.902 5.19979L5.852 7.02779C4.938 7.83979 3.836 7.56279 3.219 6.86779C2.602 6.17579 2.453 5.05079 3.362 4.24179L6.422 1.51579C7.027 0.97679 7.905 0.88679 8.605 1.29279C13.433 4.08979 14.586 4.76179 14.89 4.95279L14.894 4.94579C15.367 5.23879 15.691 5.74979 15.781 6.34779C15.871 6.97279 15.691 7.59779 15.281 8.06279L13.441 10.1528L17.023 9.95279C17.562 9.91779 18.093 10.1208 18.468 10.5118C18.847 10.8988 19.039 11.4258 18.996 11.9608L18.414 19.0278C18.355 19.7228 17.988 20.2818 17.402 20.5578C16.765 20.8508 16.023 20.7888 15.445 20.3988C14.906 20.0238 14.632 19.4178 14.687 18.7258L14.707 18.5188C14.375 19.6638 13.777 20.7068 12.957 21.5708C12.867 21.6718 12.738 21.7258 12.601 21.7308H12.593ZM1.801 13.3358C1.273 14.2778 1 15.3358 1 16.4418C1 18.8748 2.28 21.0118 4.434 22.1488C6.398 23.1918 8.711 23.1718 10.605 22.1368L9.487 21.0238C8.862 21.2968 8.184 21.4368 7.5 21.4418C5.746 21.4498 4.117 20.5278 3.223 19.0188C2.375 17.6008 2.266 15.9218 2.914 14.4528L1.801 13.3358ZM7.523 23.9218C6.28 23.9218 5.059 23.6178 3.964 23.0348C1.48 21.7188 0 19.2538 0 16.4418C0 14.9258 0.448 13.4808 1.301 12.2538C1.382 12.1328 1.516 12.0548 1.664 12.0388C1.812 12.0278 1.957 12.0818 2.062 12.1868L3.871 13.9958C4.027 14.1528 4.062 14.3898 3.961 14.5858C3.301 15.8168 3.348 17.2818 4.082 18.5038C4.797 19.7108 6.098 20.4458 7.5 20.4418C8.155 20.4418 8.78 20.2848 9.355 19.9808C9.547 19.8748 9.789 19.9098 9.941 20.0668L11.761 21.8748C11.867 21.9808 11.922 22.1288 11.906 22.2778C11.894 22.4258 11.812 22.5578 11.691 22.6438C10.461 23.4808 9.007 23.9258 7.523 23.9218Z" fill="#1D1D1B"/>
</g>
<mask id="mask1_1_1808" style="mask-type:luminance" maskUnits="userSpaceOnUse" x="12" y="0" width="7" height="6">
<path fill-rule="evenodd" clip-rule="evenodd" d="M12.7849 0H18.3669V5.5039H12.7849V0Z" fill="white"/>
</mask>
<g mask="url(#mask1_1_1808)">
<path fill-rule="evenodd" clip-rule="evenodd" d="M15.5739 0.929908C14.5899 0.929908 13.7849 1.73091 13.7849 2.71491C13.7849 3.70691 14.5859 4.50791 15.5739 4.50791C16.5619 4.50791 17.3669 3.70691 17.3669 2.71491C17.3669 1.73091 16.5619 0.929908 15.5739 0.929908ZM15.5739 5.50391C14.0349 5.50391 12.7849 4.25391 12.7849 2.71491C12.8239 1.20291 14.0619 -9.15527e-05 15.5739 -9.15527e-05C17.0899 -9.15527e-05 18.3239 1.20291 18.3669 2.71491C18.3629 4.25791 17.1129 5.50391 15.5739 5.50391Z" fill="#1D1D1B"/>
</g>
</svg>
